<?xml version="1.0" encoding="UTF-8"?>
<!DOCTYPE svg PUBLIC "-//W3C//DTD SVG 1.1//EN" "http://www.w3.org/Graphics/SVG/1.1/DTD/svg11.dtd">
<!-- Creator: CorelDRAW 2020 (64-Bit) -->
<svg xmlns="http://www.w3.org/2000/svg" xml:space="preserve" width="10in" height="2.19504in" version="1.1" style="shape-rendering:geometricPrecision; text-rendering:geometricPrecision; image-rendering:optimizeQuality; fill-rule:evenodd; clip-rule:evenodd"
viewBox="0 0 10000 2195.04"
 xmlns:xlink="http://www.w3.org/1999/xlink"
 xmlns:xodm="http://www.corel.com/coreldraw/odm/2003">
 <defs>
  <style type="text/css">
   <![CDATA[
    .fil2 {fill:#FEFEFE}
    .fil6 {fill:#434242}
    .fil4 {fill:#E41D2D}
    .fil0 {fill:#E31E24}
    .fil1 {fill:#2F3C84}
    .fil5 {fill:#FEFEFE;fill-rule:nonzero}
    .fil3 {fill:#E41D2D;fill-rule:nonzero}
   ]]>
  </style>
 </defs>
 <g id="Layer_x0020_1">
  <metadata id="CorelCorpID_0Corel-Layer"/>
  <g id="_1518326800016">
   <rect class="fil0" x="-0" y="0" width="2194.32" height="2194.32"/>
   <rect class="fil1" x="2193.86" y="0.72" width="7806.14" height="2194.32"/>
   <ellipse class="fil1" cx="1097.16" cy="513.97" rx="341.31" ry="334"/>
   <path class="fil2" d="M865.81 532.46c14.01,-10.17 23.94,-28.61 51.82,-23.23 19.9,3.84 30.33,22.75 32.81,43.19 27.4,-26.39 68.02,-27.34 76.8,28.37 43.36,-20.87 74.07,14.23 58.61,59.33 10.73,4.12 15.5,1.38 25.86,9.95 5.56,4.6 12.15,12.57 14.74,22.57 7.22,27.82 -9.57,44.12 -21.57,53.59l29.06 20.62c15.54,9.39 27.98,-0.8 34.84,-9.25 26.44,-32.54 -17.9,-58.33 -17.91,-58.35 -0.02,-0.02 -5.02,-1.67 -0.55,-10.87 9.49,-2.33 34.57,23.02 45.99,31.58 18.52,13.88 45.23,8.56 53.21,-13.43 12.02,-33.13 -13.02,-46.65 -24.39,-55.09 -7.76,-5.77 -15.56,-11.46 -23.94,-18.15 -12.68,-10.11 -21.65,-8.11 -17.19,-21.67 8.77,-0.73 43.69,28.59 58.19,38.58 7.14,4.92 21.97,18.02 30.4,20 26.46,6.21 50.22,-24.25 36.24,-55.3 -7.05,-15.65 -54.33,-42.47 -71.46,-55.01 -7.8,-5.71 -10.73,-6.67 -9.15,-14.88 16.14,-3.51 70.11,54.02 93.67,54.8 20.78,0.69 36.26,-20.21 33.81,-42.53 -2.71,-24.72 -56.41,-56.96 -77.47,-72.75l-90.26 -62.8c-15.46,-9.21 -30.79,-23.65 -45.15,-30.94 -32.46,17.62 -63.96,38.23 -95.7,56.93 -31.69,18.67 -71.69,51.21 -103.54,10.48 -11.88,-15.19 -15.32,-39.7 -5.05,-58.59 12.51,-23 111.53,-69.83 139.96,-88.52 -40.91,-25.6 -140.13,-9.62 -186.37,47 -17.06,20.88 -35.39,49.63 -41.54,85.41 -8.96,52.08 3.96,67.87 15.25,108.93z"/>
   <path class="fil2" d="M1340.25 494.8c10.51,-15.92 14.33,-52.6 13.45,-74.25 -5.02,-124 -151.9,-181.57 -278.13,-114.92l-113.37 65.88c-43.92,32.26 -7.09,100.57 50.42,63.8 36.88,-23.59 74.31,-43.37 112.46,-66.91 21.08,-13 13.63,-14.82 43.33,5.48l145.32 102.5c9.99,6.7 16.42,13.04 26.5,18.42z"/>
   <g>
    <path class="fil3" d="M1071.46 747.14l-4.62 -13.15 0 0 0.56 -0.22 0.78 -0.37 0.96 -0.52 1.1 -0.65 1.22 -0.78 1.33 -0.89 1.41 -1 1.48 -1.09 1.53 -1.17 1.59 -1.25 1.63 -1.33 1.66 -1.38 1.67 -1.43 1.69 -1.48 1.69 -1.52 1.68 -1.55 1.68 -1.58 1.65 -1.59 1.62 -1.59 1.58 -1.6 1.54 -1.59 1.48 -1.57 1.41 -1.55 1.34 -1.51 1.25 -1.47 1.17 -1.42 1.06 -1.35 0.94 -1.28 0.83 -1.19 0.69 -1.07 0.54 -0.93 0.39 -0.76 12.55 5.96 -0.78 1.54 -0.9 1.53 -0.99 1.54 -1.08 1.55 -1.18 1.59 -1.26 1.61 -1.35 1.64 -1.43 1.67 -1.49 1.69 -1.56 1.7 -1.61 1.71 -1.66 1.72 -1.7 1.72 -1.74 1.71 -1.76 1.7 -1.79 1.68 -1.81 1.66 -1.81 1.63 -1.81 1.59 -1.81 1.55 -1.8 1.5 -1.77 1.43 -1.75 1.39 -1.73 1.32 -1.69 1.24 -1.65 1.16 -1.6 1.08 -1.56 0.99 -1.54 0.91 -1.49 0.8 -1.48 0.71 -1.52 0.6 0 0zm-46.15 -51.67l13.07 4.72 0 0 -0.63 1.94 -0.48 1.93 -0.35 1.91 -0.21 1.9 -0.09 1.88 0.04 1.85 0.15 1.82 0.27 1.79 0.37 1.75 0.48 1.7 0.58 1.66 0.68 1.59 0.78 1.54 0.86 1.46 0.94 1.38 1.03 1.31 1.09 1.22 1.17 1.13 1.22 1.03 1.29 0.94 1.33 0.83 1.39 0.72 1.44 0.62 1.48 0.5 1.53 0.39 1.57 0.27 1.62 0.15 1.67 0.02 1.72 -0.13 1.79 -0.27 1.83 -0.42 1.89 -0.59 4.62 13.15 -2.87 0.9 -2.87 0.67 -2.84 0.43 -2.82 0.2 -2.78 -0.02 -2.72 -0.24 -2.67 -0.46 -2.59 -0.66 -2.51 -0.85 -2.41 -1.04 -2.31 -1.2 -2.21 -1.37 -2.09 -1.52 -1.98 -1.66 -1.86 -1.8 -1.73 -1.93 -1.59 -2.04 -1.46 -2.15 -1.32 -2.24 -1.18 -2.33 -1.04 -2.43 -0.88 -2.49 -0.73 -2.57 -0.56 -2.63 -0.4 -2.68 -0.22 -2.73 -0.05 -2.77 0.13 -2.79 0.31 -2.82 0.51 -2.83 0.7 -2.82 0.9 -2.82 0 0zm47.73 -47.41l5.28 12.9 0 0 -0.73 0.33 -0.92 0.49 -1.07 0.62 -1.19 0.75 -1.29 0.87 -1.38 0.98 -1.45 1.07 -1.5 1.16 -1.56 1.25 -1.59 1.32 -1.63 1.39 -1.64 1.43 -1.65 1.49 -1.67 1.54 -1.66 1.57 -1.64 1.58 -1.61 1.61 -1.59 1.62 -1.55 1.61 -1.5 1.61 -1.45 1.6 -1.38 1.56 -1.31 1.54 -1.24 1.5 -1.13 1.44 -1.04 1.38 -0.93 1.3 -0.81 1.21 -0.68 1.09 -0.54 0.96 -0.39 0.79 -0.23 0.57 -13.07 -4.72 0.65 -1.6 0.77 -1.56 0.87 -1.56 0.97 -1.57 1.06 -1.58 1.16 -1.62 1.24 -1.64 1.32 -1.68 1.39 -1.69 1.46 -1.72 1.53 -1.74 1.58 -1.74 1.63 -1.75 1.67 -1.75 1.71 -1.74 1.74 -1.73 1.76 -1.71 1.78 -1.68 1.78 -1.65 1.79 -1.61 1.79 -1.57 1.78 -1.51 1.76 -1.45 1.73 -1.39 1.71 -1.33 1.68 -1.24 1.64 -1.16 1.61 -1.08 1.57 -0.99 1.54 -0.89 1.52 -0.8 1.53 -0.7 0 0zm47.52 53.22l-12.55 -5.96 0 0 0.79 -1.87 0.63 -1.87 0.48 -1.87 0.33 -1.88 0.19 -1.88 0.06 -1.87 -0.08 -1.86 -0.21 -1.84 -0.34 -1.81 -0.46 -1.78 -0.58 -1.74 -0.69 -1.69 -0.8 -1.64 -0.9 -1.56 -1 -1.5 -1.09 -1.41 -1.17 -1.31 -1.26 -1.22 -1.32 -1.12 -1.39 -1 -1.46 -0.89 -1.5 -0.78 -1.56 -0.65 -1.6 -0.52 -1.66 -0.39 -1.7 -0.25 -1.76 -0.11 -1.81 0.04 -1.87 0.2 -1.93 0.37 -1.98 0.56 -2.06 0.76 -5.28 -12.9 3.06 -1.13 3.07 -0.86 3.06 -0.59 3.02 -0.32 2.98 -0.07 2.93 0.18 2.85 0.43 2.78 0.65 2.69 0.87 2.59 1.07 2.47 1.27 2.35 1.44 2.23 1.61 2.09 1.77 1.96 1.91 1.83 2.05 1.67 2.17 1.52 2.28 1.38 2.39 1.21 2.47 1.05 2.56 0.88 2.64 0.7 2.71 0.51 2.77 0.32 2.81 0.12 2.85 -0.08 2.88 -0.3 2.9 -0.51 2.9 -0.74 2.91 -0.97 2.87 -1.21 2.83 0 0zm-33.78 -91.22l-13.69 2.39 0 0 -0.19 -0.93 -0.26 -0.96 -0.32 -1 -0.39 -1.02 -0.44 -1.02 -0.51 -1.04 -0.57 -1.04 -0.63 -1.03 -0.69 -1.03 -0.74 -1 -0.79 -0.98 -0.84 -0.95 -0.89 -0.93 -0.92 -0.88 -0.96 -0.84 -1 -0.8 -1.03 -0.74 -1.05 -0.69 -1.07 -0.63 -1.1 -0.57 -1.11 -0.51 -1.12 -0.44 -1.13 -0.37 -1.15 -0.3 -1.16 -0.24 -1.15 -0.17 -1.16 -0.08 -1.17 -0.01 -1.19 0.07 -1.19 0.15 -1.2 0.24 -1.23 0.33 -4.02 -13.35 2.13 -0.57 2.14 -0.42 2.13 -0.26 2.1 -0.12 2.08 0.02 2.06 0.15 2.02 0.28 1.97 0.4 1.93 0.52 1.89 0.62 1.84 0.72 1.78 0.81 1.72 0.9 1.67 0.98 1.61 1.06 1.55 1.12 1.49 1.19 1.43 1.25 1.37 1.31 1.3 1.35 1.24 1.4 1.17 1.45 1.09 1.48 1.02 1.52 0.96 1.56 0.88 1.59 0.8 1.62 0.72 1.65 0.63 1.67 0.54 1.69 0.45 1.71 0.35 1.74 0 0zm-55.64 78.96l-10.03 -9.65 0 0 2.64 -2.72 2.66 -2.63 2.65 -2.55 2.65 -2.48 2.64 -2.41 2.61 -2.35 2.58 -2.29 2.55 -2.24 2.5 -2.18 2.44 -2.14 2.39 -2.11 2.31 -2.06 2.23 -2.03 2.15 -2 2.05 -1.98 1.94 -1.95 1.83 -1.93 1.71 -1.91 1.59 -1.9 1.46 -1.88 1.31 -1.86 1.19 -1.87 1.04 -1.85 0.89 -1.83 0.75 -1.84 0.61 -1.85 0.47 -1.86 0.33 -1.91 0.18 -1.96 0.03 -2.03 -0.13 -2.12 -0.3 -2.22 13.69 -2.39 0.44 3.22 0.19 3.17 -0.05 3.11 -0.28 3.04 -0.51 2.97 -0.72 2.89 -0.92 2.79 -1.11 2.71 -1.28 2.63 -1.43 2.53 -1.56 2.46 -1.69 2.4 -1.81 2.33 -1.9 2.27 -2 2.24 -2.09 2.2 -2.17 2.17 -2.23 2.15 -2.3 2.15 -2.35 2.14 -2.39 2.13 -2.43 2.15 -2.47 2.16 -2.5 2.18 -2.51 2.2 -2.53 2.23 -2.54 2.28 -2.53 2.31 -2.52 2.36 -2.51 2.41 -2.48 2.46 -2.46 2.53 0 0zm-37.17 31.77l-3.57 -13.48 0 0 0.65 -0.2 0.72 -0.28 0.79 -0.35 0.86 -0.44 0.9 -0.51 0.95 -0.59 0.98 -0.66 1.01 -0.72 1.03 -0.79 1.06 -0.85 1.07 -0.9 1.07 -0.94 1.08 -0.98 1.09 -1.02 1.08 -1.04 1.09 -1.08 1.09 -1.1 1.07 -1.11 1.06 -1.12 1.06 -1.13 1.04 -1.12 1.02 -1.12 1 -1.11 0.98 -1.09 0.96 -1.07 0.94 -1.05 0.92 -1.02 0.88 -0.98 0.86 -0.96 0.83 -0.91 0.8 -0.87 0.78 -0.83 10.03 9.65 -0.67 0.71 -0.72 0.78 -0.78 0.85 -0.82 0.91 -0.87 0.97 -0.9 1.01 -0.94 1.05 -0.98 1.09 -1.01 1.13 -1.04 1.15 -1.07 1.17 -1.1 1.19 -1.12 1.2 -1.15 1.2 -1.17 1.21 -1.18 1.19 -1.2 1.2 -1.23 1.19 -1.24 1.16 -1.26 1.15 -1.28 1.12 -1.29 1.08 -1.31 1.05 -1.33 1.01 -1.35 0.97 -1.37 0.92 -1.39 0.86 -1.42 0.8 -1.44 0.74 -1.48 0.67 -1.52 0.57 -1.57 0.48 0 0zm-23.72 -79.79l9.5 10.17 0 0 -3.98 3.93 -3.47 3.8 -2.99 3.67 -2.52 3.52 -2.09 3.36 -1.68 3.2 -1.3 3.03 -0.95 2.85 -0.63 2.68 -0.34 2.51 -0.08 2.35 0.15 2.2 0.36 2.06 0.56 1.95 0.74 1.85 0.91 1.74 1.09 1.65 1.24 1.56 1.39 1.45 1.54 1.35 1.66 1.23 1.77 1.11 1.87 0.98 1.93 0.84 1.99 0.7 2.01 0.55 2.02 0.39 2.01 0.24 1.97 0.08 1.91 -0.07 1.83 -0.23 1.72 -0.38 3.57 13.48 -2.98 0.65 -3.02 0.38 -3.04 0.12 -3.06 -0.12 -3.05 -0.36 -3.03 -0.58 -2.99 -0.81 -2.93 -1.03 -2.87 -1.25 -2.78 -1.47 -2.68 -1.68 -2.56 -1.9 -2.41 -2.12 -2.24 -2.33 -2.04 -2.55 -1.81 -2.77 -1.56 -2.98 -1.27 -3.17 -0.96 -3.35 -0.61 -3.52 -0.24 -3.65 0.13 -3.77 0.52 -3.86 0.93 -3.94 1.33 -4.02 1.75 -4.07 2.17 -4.13 2.6 -4.18 3.04 -4.24 3.5 -4.3 3.98 -4.35 4.46 -4.41 0 0zm32.33 -30.83l9.58 10.09 0 0 -1.04 1 -1.04 1 -1.04 0.99 -1.02 0.98 -1.01 0.97 -1.02 0.97 -1 0.96 -1.01 0.96 -1 0.96 -0.99 0.94 -0.99 0.95 -0.99 0.96 -0.99 0.94 -0.98 0.94 -0.99 0.95 -0.98 0.94 -0.98 0.94 -0.99 0.94 -0.99 0.94 -0.99 0.94 -1 0.95 -1.01 0.95 -1 0.96 -1.02 0.96 -1.01 0.96 -1.02 0.97 -1.03 0.98 -1.04 0.98 -1.04 0.98 -1.06 1 -1.07 1.01 -1.07 1.01 -9.5 -10.17 1.07 -1.01 1.05 -0.99 1.05 -1 1.04 -0.98 1.04 -0.98 1.02 -0.97 1.02 -0.96 1.02 -0.96 1 -0.95 1.01 -0.96 0.99 -0.94 0.99 -0.94 0.99 -0.94 0.99 -0.94 0.98 -0.94 0.98 -0.94 0.99 -0.94 0.98 -0.93 0.99 -0.95 0.99 -0.94 0.98 -0.94 0.99 -0.95 1 -0.96 1 -0.95 0.99 -0.96 1.01 -0.97 1.01 -0.96 1.02 -0.98 1.03 -0.98 1.03 -0.98 1.04 -0.99 1.05 -1.01 0 0zm38.13 -30.51l4.02 13.35 0 0 -1.19 0.39 -1.16 0.43 -1.13 0.47 -1.11 0.52 -1.1 0.56 -1.08 0.6 -1.06 0.64 -1.05 0.68 -1.04 0.72 -1.03 0.75 -1.03 0.79 -1 0.81 -1 0.85 -1 0.88 -0.98 0.9 -0.98 0.93 -0.97 0.95 -0.96 0.97 -0.97 1 -0.96 1 -0.96 1.02 -0.96 1.04 -0.96 1.04 -0.96 1.04 -0.97 1.06 -0.96 1.04 -0.98 1.05 -0.98 1.04 -0.99 1.04 -1.01 1.03 -1.02 1.02 -1.03 1 -9.58 -10.09 0.88 -0.85 0.89 -0.89 0.9 -0.92 0.91 -0.95 0.92 -0.97 0.93 -1 0.95 -1.03 0.95 -1.03 0.97 -1.06 0.98 -1.07 1 -1.07 1.02 -1.09 1.04 -1.09 1.06 -1.09 1.08 -1.09 1.12 -1.09 1.13 -1.07 1.17 -1.07 1.19 -1.06 1.22 -1.04 1.28 -1.03 1.29 -0.99 1.33 -0.97 1.38 -0.94 1.41 -0.91 1.46 -0.87 1.5 -0.83 1.54 -0.78 1.59 -0.74 1.64 -0.69 1.68 -0.63 1.72 -0.56 0 0zm-19.11 -11.04l-13.5 3.27 0 0 -0.25 -0.93 -0.31 -0.95 -0.37 -0.97 -0.43 -0.96 -0.5 -1 -0.54 -0.99 -0.6 -0.98 -0.65 -0.97 -0.7 -0.96 -0.75 -0.94 -0.79 -0.91 -0.83 -0.87 -0.87 -0.85 -0.91 -0.8 -0.95 -0.77 -0.96 -0.72 -0.98 -0.66 -1.02 -0.61 -1.03 -0.56 -1.04 -0.5 -1.06 -0.43 -1.06 -0.38 -1.06 -0.31 -1.08 -0.24 -1.07 -0.18 -1.07 -0.11 -1.08 -0.04 -1.08 0.03 -1.07 0.1 -1.09 0.18 -1.11 0.26 -1.12 0.34 -4.51 -13.19 2.02 -0.62 2.02 -0.47 2.02 -0.33 2.02 -0.19 1.99 -0.05 1.96 0.07 1.94 0.2 1.91 0.32 1.86 0.43 1.83 0.53 1.78 0.63 1.72 0.72 1.69 0.8 1.63 0.88 1.57 0.96 1.53 1.03 1.47 1.09 1.41 1.14 1.36 1.21 1.3 1.25 1.24 1.31 1.18 1.35 1.11 1.39 1.05 1.43 0.98 1.46 0.92 1.5 0.84 1.53 0.77 1.55 0.7 1.59 0.62 1.61 0.53 1.63 0.44 1.65 0 0zm-22.01 49.5l-9.61 -10.07 0 0 0.93 -0.88 0.94 -0.89 0.98 -0.9 0.97 -0.89 0.97 -0.89 0.97 -0.91 0.97 -0.92 0.95 -0.93 0.95 -0.94 0.92 -0.95 0.91 -0.98 0.88 -0.99 0.84 -1 0.81 -1.02 0.78 -1.04 0.73 -1.06 0.69 -1.07 0.63 -1.09 0.59 -1.11 0.52 -1.12 0.48 -1.16 0.42 -1.18 0.36 -1.2 0.3 -1.24 0.23 -1.28 0.17 -1.33 0.09 -1.37 0.01 -1.43 -0.07 -1.49 -0.17 -1.57 -0.26 -1.64 -0.37 -1.71 13.5 -3.27 0.52 2.42 0.37 2.37 0.24 2.31 0.11 2.28 -0.02 2.22 -0.14 2.17 -0.26 2.11 -0.37 2.05 -0.48 2 -0.57 1.93 -0.66 1.85 -0.74 1.79 -0.81 1.73 -0.87 1.65 -0.93 1.59 -0.98 1.53 -1.02 1.46 -1.04 1.4 -1.07 1.35 -1.09 1.3 -1.1 1.24 -1.1 1.19 -1.11 1.15 -1.1 1.09 -1.09 1.06 -1.07 1.01 -1.04 0.96 -1.02 0.94 -0.98 0.89 -0.91 0.84 -0.87 0.82 -0.83 0.78 0 0zm-69.89 63.47l-4.52 -13.19 0 0 -0.09 0.02 0.62 -0.37 1.04 -0.72 1.34 -0.99 1.59 -1.25 1.79 -1.46 1.96 -1.66 2.11 -1.83 2.25 -2 2.37 -2.13 2.46 -2.25 2.55 -2.36 2.61 -2.44 2.67 -2.51 2.7 -2.56 2.72 -2.6 2.73 -2.62 2.72 -2.62 2.69 -2.61 2.66 -2.57 2.6 -2.54 2.53 -2.47 2.44 -2.39 2.34 -2.3 2.23 -2.19 2.09 -2.06 1.95 -1.93 1.8 -1.76 1.61 -1.59 1.43 -1.4 1.23 -1.2 1.02 -0.99 9.61 10.07 -0.96 0.93 -1.2 1.17 -1.41 1.39 -1.61 1.58 -1.79 1.76 -1.94 1.92 -2.1 2.07 -2.24 2.2 -2.35 2.31 -2.45 2.41 -2.54 2.48 -2.61 2.55 -2.67 2.6 -2.72 2.63 -2.74 2.65 -2.76 2.64 -2.76 2.63 -2.74 2.59 -2.7 2.54 -2.66 2.48 -2.61 2.41 -2.54 2.31 -2.44 2.2 -2.35 2.07 -2.23 1.94 -2.11 1.78 -1.98 1.62 -1.85 1.45 -1.71 1.28 -1.63 1.1 -1.61 0.95 -1.87 0.83 0 0zm-47.15 -28.34l13.53 -3.13 0 0 0.27 1.03 0.33 1.05 0.38 1.04 0.44 1.06 0.5 1.07 0.56 1.05 0.61 1.04 0.66 1.03 0.71 1 0.76 0.98 0.8 0.94 0.85 0.91 0.88 0.87 0.92 0.83 0.95 0.78 0.98 0.73 1.01 0.68 1.04 0.62 1.06 0.57 1.07 0.5 1.09 0.44 1.12 0.37 1.13 0.31 1.13 0.23 1.17 0.17 1.18 0.1 1.19 0.02 1.21 -0.06 1.23 -0.13 1.26 -0.22 1.29 -0.31 1.31 -0.41 4.52 13.19 -2.15 0.67 -2.15 0.52 -2.13 0.37 -2.12 0.24 -2.1 0.09 -2.07 -0.04 -2.04 -0.17 -2 -0.29 -1.98 -0.41 -1.91 -0.52 -1.86 -0.62 -1.82 -0.73 -1.76 -0.82 -1.7 -0.9 -1.64 -0.98 -1.58 -1.06 -1.52 -1.13 -1.46 -1.2 -1.39 -1.25 -1.33 -1.31 -1.26 -1.36 -1.2 -1.41 -1.13 -1.46 -1.06 -1.5 -0.99 -1.53 -0.92 -1.57 -0.85 -1.61 -0.76 -1.62 -0.7 -1.65 -0.61 -1.69 -0.52 -1.7 -0.44 -1.72 0 0zm56.43 -80.33l9.83 9.85 0 0 -2.73 2.7 -2.74 2.65 -2.75 2.57 -2.73 2.52 -2.72 2.46 -2.7 2.41 -2.67 2.36 -2.61 2.31 -2.57 2.28 -2.52 2.23 -2.44 2.19 -2.37 2.16 -2.29 2.13 -2.2 2.1 -2.1 2.07 -1.98 2.04 -1.87 2.02 -1.74 1.99 -1.61 1.97 -1.48 1.94 -1.32 1.91 -1.18 1.89 -1.03 1.86 -0.87 1.84 -0.72 1.81 -0.57 1.8 -0.43 1.78 -0.27 1.79 -0.12 1.81 0.03 1.85 0.2 1.91 0.37 1.99 -13.53 3.13 -0.58 -3.1 -0.32 -3.08 -0.06 -3.04 0.2 -2.99 0.44 -2.93 0.67 -2.86 0.88 -2.78 1.07 -2.71 1.25 -2.63 1.41 -2.56 1.56 -2.5 1.69 -2.44 1.81 -2.39 1.92 -2.35 2.03 -2.31 2.11 -2.28 2.21 -2.27 2.28 -2.24 2.35 -2.24 2.41 -2.24 2.46 -2.24 2.52 -2.26 2.55 -2.26 2.58 -2.28 2.61 -2.31 2.63 -2.33 2.63 -2.35 2.65 -2.4 2.65 -2.43 2.62 -2.46 2.61 -2.51 2.58 -2.56 0 0zm37.18 -31.89l4.51 13.19 0 0 -0.98 0.37 -0.99 0.42 -1 0.48 -1.02 0.54 -1.02 0.59 -1.03 0.65 -1.04 0.7 -1.03 0.74 -1.05 0.8 -1.04 0.83 -1.05 0.88 -1.04 0.91 -1.05 0.95 -1.04 0.97 -1.02 1 -1.03 1.02 -1.02 1.05 -1.02 1.06 -1.01 1.07 -1 1.07 -0.99 1.09 -0.99 1.09 -0.98 1.08 -0.96 1.08 -0.96 1.07 -0.94 1.06 -0.95 1.05 -0.93 1.03 -0.93 1.02 -0.93 0.99 -0.91 0.96 -0.92 0.94 -9.83 -9.85 0.78 -0.79 0.82 -0.86 0.83 -0.89 0.85 -0.93 0.89 -0.99 0.91 -1.01 0.94 -1.05 0.96 -1.07 0.98 -1.1 1.01 -1.11 1.02 -1.13 1.05 -1.14 1.07 -1.15 1.09 -1.16 1.1 -1.15 1.13 -1.16 1.16 -1.15 1.18 -1.15 1.2 -1.13 1.22 -1.11 1.25 -1.09 1.28 -1.07 1.31 -1.04 1.33 -1 1.36 -0.98 1.39 -0.93 1.42 -0.89 1.46 -0.85 1.48 -0.79 1.53 -0.74 1.56 -0.67 1.6 -0.59 0 0zm-38.37 34.65l-11 -8.51 0 0 1.35 -1.92 1.13 -1.93 0.94 -1.95 0.74 -1.94 0.57 -1.96 0.4 -1.96 0.24 -1.96 0.07 -1.96 -0.07 -1.95 -0.22 -1.93 -0.36 -1.92 -0.5 -1.88 -0.63 -1.84 -0.75 -1.78 -0.87 -1.72 -0.99 -1.65 -1.09 -1.56 -1.19 -1.47 -1.26 -1.37 -1.34 -1.25 -1.41 -1.14 -1.46 -1.01 -1.51 -0.87 -1.55 -0.74 -1.58 -0.59 -1.6 -0.44 -1.63 -0.3 -1.65 -0.15 -1.67 0.01 -1.71 0.18 -1.74 0.35 -1.79 0.55 -4.67 -13.13 3.03 -0.93 3.05 -0.63 3.03 -0.31 3 -0.03 2.94 0.26 2.88 0.52 2.79 0.78 2.69 1.01 2.59 1.22 2.47 1.43 2.35 1.61 2.22 1.78 2.08 1.95 1.94 2.09 1.79 2.23 1.64 2.36 1.48 2.47 1.31 2.59 1.14 2.69 0.94 2.78 0.76 2.84 0.55 2.92 0.34 2.98 0.11 3.02 -0.12 3.06 -0.37 3.08 -0.63 3.08 -0.89 3.06 -1.16 3.04 -1.44 2.99 -1.72 2.93 -2 2.84 0 0zm-56.98 51.7l-4.54 -13.18 0 0 -0.52 0.22 0.37 -0.24 0.79 -0.56 1.07 -0.82 1.3 -1.04 1.48 -1.23 1.65 -1.4 1.79 -1.55 1.91 -1.67 2.02 -1.8 2.11 -1.9 2.18 -1.98 2.23 -2.04 2.28 -2.1 2.3 -2.14 2.31 -2.15 2.31 -2.17 2.28 -2.15 2.25 -2.13 2.19 -2.09 2.13 -2.04 2.04 -1.97 1.95 -1.89 1.83 -1.79 1.7 -1.67 1.55 -1.54 1.4 -1.4 1.22 -1.23 1.01 -1.04 0.79 -0.83 0.51 -0.56 0.11 -0.12 11 8.51 -0.71 0.85 -0.77 0.85 -0.93 0.98 -1.11 1.15 -1.29 1.3 -1.44 1.45 -1.61 1.59 -1.74 1.71 -1.86 1.82 -1.98 1.92 -2.07 2 -2.15 2.07 -2.22 2.12 -2.27 2.16 -2.31 2.19 -2.33 2.19 -2.34 2.19 -2.33 2.16 -2.31 2.13 -2.28 2.09 -2.22 2.02 -2.15 1.94 -2.08 1.85 -1.98 1.74 -1.88 1.63 -1.76 1.49 -1.64 1.35 -1.5 1.2 -1.38 1.06 -1.29 0.91 -1.3 0.81 -1.75 0.8 0 0zm-41.19 -62.98l11.13 8.35 0 0 -1.27 1.85 -1.09 1.91 -0.93 1.96 -0.77 2 -0.61 2.05 -0.46 2.07 -0.31 2.09 -0.16 2.12 -0.02 2.1 0.13 2.09 0.27 2.06 0.41 2.03 0.54 1.98 0.67 1.91 0.79 1.84 0.91 1.76 1.01 1.65 1.12 1.55 1.21 1.43 1.3 1.31 1.39 1.17 1.48 1.04 1.55 0.9 1.63 0.76 1.72 0.61 1.81 0.46 1.91 0.29 2.02 0.11 2.15 -0.08 2.26 -0.29 2.39 -0.52 2.53 -0.77 4.54 13.18 -3.57 1.08 -3.53 0.77 -3.47 0.44 -3.39 0.13 -3.31 -0.18 -3.21 -0.48 -3.09 -0.77 -2.94 -1.05 -2.81 -1.3 -2.64 -1.54 -2.47 -1.74 -2.3 -1.94 -2.12 -2.12 -1.93 -2.28 -1.74 -2.41 -1.56 -2.54 -1.36 -2.65 -1.18 -2.75 -0.98 -2.83 -0.79 -2.9 -0.59 -2.96 -0.39 -3.02 -0.19 -3.05 0.02 -3.07 0.24 -3.08 0.45 -3.09 0.69 -3.07 0.91 -3.04 1.16 -3 1.39 -2.93 1.64 -2.86 1.88 -2.75 0 0zm59.37 -50.41l4.67 13.13 0 0 0.05 -0.01 -0.57 0.32 -0.92 0.58 -1.19 0.81 -1.41 1.01 -1.57 1.18 -1.74 1.33 -1.87 1.47 -1.98 1.59 -2.09 1.7 -2.17 1.79 -2.23 1.86 -2.28 1.93 -2.32 1.98 -2.34 2.02 -2.35 2.04 -2.34 2.04 -2.32 2.05 -2.29 2.02 -2.23 1.99 -2.16 1.95 -2.08 1.89 -1.98 1.82 -1.87 1.73 -1.74 1.63 -1.6 1.52 -1.44 1.39 -1.26 1.24 -1.06 1.07 -0.82 0.86 -0.56 0.61 -0.18 0.22 -11.13 -8.35 0.82 -1.01 0.9 -1 1.05 -1.1 1.21 -1.22 1.37 -1.35 1.53 -1.47 1.67 -1.58 1.81 -1.69 1.92 -1.78 2.03 -1.87 2.12 -1.93 2.2 -1.98 2.28 -2.04 2.32 -2.06 2.36 -2.08 2.38 -2.08 2.39 -2.07 2.39 -2.06 2.37 -2.02 2.34 -1.98 2.3 -1.92 2.23 -1.83 2.16 -1.76 2.07 -1.66 1.98 -1.56 1.87 -1.44 1.76 -1.31 1.63 -1.17 1.52 -1.04 1.43 -0.91 1.39 -0.78 1.59 -0.7 0 0zm410.76 -31.9l7.98 -11.41 -0.13 -0.09 0.97 0.66 0.96 0.66 0.93 0.65 0.91 0.65 0.89 0.64 0.87 0.63 0.86 0.63 0.84 0.63 0.82 0.61 0.83 0.62 0.79 0.61 0.78 0.59 0.79 0.6 0.76 0.57 0.76 0.58 0.76 0.57 0.75 0.56 0.75 0.56 0.74 0.55 0.74 0.54 0.76 0.54 0.74 0.52 0.74 0.51 0.76 0.51 0.77 0.5 0.78 0.5 0.78 0.49 0.78 0.48 0.81 0.48 0.81 0.47 0.83 0.46 0.85 0.46 -6.52 12.31 -1.01 -0.55 -1 -0.56 -0.98 -0.57 -0.94 -0.56 -0.94 -0.57 -0.92 -0.58 -0.89 -0.57 -0.88 -0.58 -0.86 -0.58 -0.87 -0.59 -0.85 -0.6 -0.81 -0.59 -0.82 -0.59 -0.81 -0.59 -0.8 -0.59 -0.8 -0.6 -0.78 -0.59 -0.79 -0.59 -0.78 -0.6 -0.77 -0.59 -0.79 -0.6 -0.79 -0.6 -0.77 -0.58 -0.8 -0.6 -0.8 -0.59 -0.8 -0.59 -0.81 -0.59 -0.82 -0.59 -0.83 -0.59 -0.84 -0.59 -0.86 -0.59 -0.88 -0.59 -0.13 -0.09zm0.13 0.09l-0.13 -0.09 0.14 0.09 -0 0zm-137.47 -114l145.32 102.5 -7.98 11.41 -145.32 -102.5 7.9 -11.47 0.09 0.06zm-0.09 -0.06l0.09 0.06 -0.01 -0 -0.09 -0.06zm-43.61 6.23l-7.27 -11.88 0 0 1.82 -1.14 1.67 -1.07 1.55 -1.02 1.43 -0.96 1.35 -0.91 1.27 -0.84 1.21 -0.8 1.2 -0.75 1.19 -0.7 1.21 -0.65 1.27 -0.6 1.35 -0.53 1.47 -0.43 1.55 -0.28 1.59 -0.11 1.63 0.07 1.59 0.25 1.51 0.39 1.45 0.52 1.41 0.61 1.38 0.7 1.39 0.78 1.43 0.87 1.49 0.94 1.57 1.04 1.67 1.14 1.8 1.24 1.94 1.35 2.1 1.46 2.27 1.57 2.46 1.7 2.65 1.82 -7.81 11.53 -2.7 -1.85 -2.49 -1.72 -2.29 -1.59 -2.1 -1.47 -1.91 -1.33 -1.74 -1.2 -1.57 -1.07 -1.41 -0.93 -1.25 -0.8 -1.09 -0.66 -0.94 -0.52 -0.77 -0.39 -0.6 -0.26 -0.44 -0.16 -0.27 -0.07 -0.13 -0.02 -0.03 0 -0.04 0 -0.08 0.02 -0.19 0.06 -0.35 0.14 -0.5 0.24 -0.65 0.35 -0.8 0.48 -0.93 0.59 -1.07 0.7 -1.21 0.81 -1.35 0.91 -1.5 1 -1.65 1.08 -1.81 1.16 -1.96 1.23 0 0zm-112.37 66.85l-7.46 -11.76 0 0 3.49 -2.22 3.49 -2.19 3.49 -2.18 3.5 -2.16 3.49 -2.14 3.49 -2.12 3.5 -2.11 3.5 -2.09 3.5 -2.08 3.5 -2.07 3.5 -2.06 3.51 -2.06 3.51 -2.04 3.51 -2.04 3.51 -2.04 3.51 -2.04 3.52 -2.04 3.52 -2.04 3.52 -2.03 3.52 -2.04 3.53 -2.04 3.52 -2.05 3.54 -2.06 3.53 -2.06 3.53 -2.07 3.54 -2.09 3.54 -2.1 3.54 -2.11 3.55 -2.13 3.55 -2.15 3.55 -2.16 3.55 -2.18 7.27 11.88 -3.6 2.21 -3.59 2.19 -3.59 2.17 -3.58 2.15 -3.57 2.13 -3.57 2.11 -3.56 2.1 -3.56 2.09 -3.56 2.07 -3.54 2.07 -3.54 2.06 -3.54 2.04 -3.52 2.05 -3.53 2.04 -3.52 2.03 -3.51 2.03 -3.5 2.04 -3.5 2.03 -3.5 2.04 -3.49 2.04 -3.48 2.04 -3.49 2.05 -3.47 2.05 -3.46 2.07 -3.47 2.07 -3.46 2.08 -3.45 2.1 -3.45 2.11 -3.44 2.13 -3.44 2.15 -3.43 2.16 -3.43 2.18 0 0zm-57.63 -75.72l6.95 12.07 0.62 -0.41 -3.4 2.74 -2.96 2.87 -2.54 2.96 -2.14 3.06 -1.76 3.12 -1.41 3.17 -1.06 3.2 -0.73 3.22 -0.41 3.22 -0.1 3.19 0.2 3.16 0.49 3.09 0.77 3.01 1.04 2.9 1.31 2.77 1.55 2.62 1.79 2.44 2.01 2.24 2.23 2.04 2.44 1.8 2.64 1.56 2.84 1.29 3.04 1 3.24 0.7 3.45 0.37 3.67 0.01 3.88 -0.39 4.09 -0.81 4.31 -1.27 4.51 -1.78 4.71 -2.31 4.89 -2.89 7.46 11.76 -5.77 3.4 -5.69 2.79 -5.59 2.21 -5.5 1.63 -5.37 1.07 -5.24 0.52 -5.08 -0.01 -4.89 -0.52 -4.68 -1 -4.45 -1.47 -4.19 -1.89 -3.9 -2.3 -3.59 -2.66 -3.28 -2.99 -2.94 -3.28 -2.59 -3.54 -2.24 -3.77 -1.87 -3.97 -1.49 -4.14 -1.1 -4.28 -0.7 -4.39 -0.28 -4.48 0.14 -4.53 0.58 -4.55 1.03 -4.54 1.49 -4.5 1.96 -4.41 2.43 -4.3 2.92 -4.16 3.4 -3.97 3.89 -3.76 4.36 -3.52 0.62 -0.41zm-0.62 0.41l0.29 -0.21 0.33 -0.19 -0.62 0.41zm120.94 -54.22l-113.37 65.88 -6.95 -12.07 113.37 -65.88 0.24 -0.14 6.71 12.21zm-6.95 -12.07l0.17 -0.1 0.07 -0.04 -0.24 0.14zm288.54 120.67l-13.87 0.57 0 0 -0.84 -10.92 -1.6 -10.51 -2.33 -10.1 -3.04 -9.69 -3.7 -9.27 -4.35 -8.84 -4.97 -8.41 -5.57 -7.98 -6.14 -7.54 -6.68 -7.08 -7.2 -6.62 -7.69 -6.15 -8.15 -5.67 -8.59 -5.18 -9 -4.67 -9.39 -4.15 -9.74 -3.61 -10.07 -3.07 -10.37 -2.52 -10.63 -1.95 -10.87 -1.37 -11.09 -0.78 -11.26 -0.19 -11.42 0.43 -11.54 1.05 -11.63 1.69 -11.69 2.33 -11.73 3 -11.72 3.66 -11.7 4.33 -11.65 5.02 -11.56 5.73 -6.46 -12.35 12.22 -6.04 12.31 -5.31 12.39 -4.59 12.42 -3.88 12.43 -3.17 12.41 -2.48 12.35 -1.79 12.27 -1.12 12.16 -0.46 12.01 0.19 11.84 0.83 11.64 1.47 11.41 2.09 11.14 2.71 10.84 3.31 10.52 3.91 10.17 4.49 9.78 5.07 9.37 5.63 8.91 6.2 8.43 6.74 7.91 7.28 7.37 7.81 6.78 8.33 6.16 8.84 5.52 9.33 4.83 9.8 4.11 10.27 3.35 10.71 2.58 11.14 1.76 11.55 0.92 11.94 0 0zm-23.65 80.69l6.52 -12.31 -9.05 2.3 0.78 -1.24 0.77 -1.38 0.76 -1.52 0.75 -1.65 0.73 -1.76 0.7 -1.86 0.68 -1.97 0.65 -2.06 0.62 -2.14 0.59 -2.21 0.56 -2.28 0.53 -2.33 0.5 -2.39 0.47 -2.43 0.44 -2.46 0.41 -2.5 0.37 -2.52 0.34 -2.53 0.31 -2.54 0.28 -2.53 0.25 -2.53 0.22 -2.52 0.19 -2.48 0.16 -2.47 0.13 -2.43 0.1 -2.38 0.07 -2.33 0.05 -2.28 0.01 -2.21 -0.01 -2.13 -0.04 -2.06 -0.06 -1.97 13.87 -0.57 0.07 2.18 0.04 2.25 0.02 2.32 -0.02 2.39 -0.05 2.44 -0.08 2.49 -0.11 2.55 -0.14 2.58 -0.17 2.62 -0.2 2.66 -0.24 2.67 -0.26 2.69 -0.3 2.7 -0.33 2.7 -0.37 2.71 -0.41 2.7 -0.44 2.69 -0.47 2.67 -0.51 2.64 -0.55 2.62 -0.59 2.58 -0.63 2.54 -0.67 2.49 -0.71 2.44 -0.75 2.38 -0.8 2.32 -0.85 2.26 -0.9 2.19 -0.95 2.1 -1.02 2.03 -1.09 1.96 -1.15 1.86 -9.05 2.3zm9.05 -2.3l-3.48 5.28 -5.56 -2.97 9.05 -2.3zm-502.32 -76.31l13.69 2.37 0 0 -0.76 4.65 -0.63 4.43 -0.51 4.24 -0.4 4.06 -0.3 3.87 -0.19 3.71 -0.09 3.56 0 3.42 0.09 3.3 0.17 3.18 0.25 3.08 0.33 3 0.4 2.92 0.47 2.86 0.54 2.82 0.6 2.79 0.66 2.76 0.71 2.76 0.77 2.77 0.81 2.79 0.86 2.82 0.91 2.87 0.94 2.91 0.98 2.98 1.01 3.06 1.04 3.14 1.05 3.23 1.07 3.33 1.09 3.46 1.08 3.58 1.09 3.71 1.09 3.85 -13.39 3.71 -1.04 -3.7 -1.05 -3.57 -1.05 -3.45 -1.05 -3.35 -1.05 -3.26 -1.04 -3.18 -1.03 -3.11 -1.01 -3.06 -0.99 -3.02 -0.96 -2.99 -0.94 -2.97 -0.91 -2.97 -0.87 -2.97 -0.82 -2.98 -0.78 -3.02 -0.72 -3.05 -0.66 -3.09 -0.6 -3.15 -0.53 -3.22 -0.45 -3.29 -0.37 -3.37 -0.28 -3.46 -0.2 -3.56 -0.1 -3.67 0 -3.8 0.1 -3.92 0.21 -4.06 0.32 -4.2 0.43 -4.36 0.55 -4.54 0.67 -4.72 0.8 -4.91 0 0zm43.02 -88.65l10.73 8.84 0 0 -1.56 1.93 -1.56 1.97 -1.57 2.02 -1.56 2.06 -1.56 2.11 -1.56 2.15 -1.55 2.19 -1.53 2.22 -1.52 2.27 -1.51 2.31 -1.49 2.35 -1.47 2.4 -1.45 2.43 -1.42 2.48 -1.4 2.52 -1.37 2.56 -1.34 2.59 -1.3 2.63 -1.26 2.69 -1.23 2.71 -1.19 2.75 -1.14 2.8 -1.09 2.83 -1.05 2.87 -1 2.91 -0.94 2.95 -0.89 2.99 -0.83 3.02 -0.78 3.06 -0.71 3.11 -0.65 3.13 -0.58 3.18 -13.69 -2.37 0.64 -3.49 0.71 -3.45 0.78 -3.4 0.85 -3.35 0.91 -3.31 0.98 -3.26 1.03 -3.22 1.09 -3.17 1.14 -3.13 1.19 -3.08 1.24 -3.03 1.28 -2.99 1.33 -2.94 1.37 -2.89 1.41 -2.85 1.44 -2.8 1.47 -2.75 1.5 -2.7 1.53 -2.66 1.55 -2.61 1.57 -2.56 1.6 -2.52 1.61 -2.46 1.62 -2.42 1.64 -2.38 1.65 -2.32 1.65 -2.27 1.65 -2.22 1.66 -2.18 1.65 -2.13 1.65 -2.08 1.65 -2.03 0 0zm195.54 -36.74l-7.61 -11.67 0.13 11.75 -3.52 -2 -3.86 -1.81 -4.19 -1.63 -4.5 -1.42 -4.79 -1.21 -5.06 -0.99 -5.3 -0.78 -5.52 -0.54 -5.71 -0.32 -5.89 -0.09 -6.04 0.14 -6.16 0.38 -6.28 0.61 -6.35 0.84 -6.41 1.07 -6.45 1.31 -6.47 1.54 -6.47 1.78 -6.44 2 -6.39 2.24 -6.33 2.47 -6.23 2.7 -6.13 2.93 -5.99 3.15 -5.85 3.38 -5.67 3.6 -5.48 3.82 -5.27 4.04 -5.04 4.26 -4.79 4.47 -4.52 4.69 -4.24 4.89 -10.73 -8.84 4.74 -5.48 5.03 -5.21 5.31 -4.96 5.56 -4.69 5.78 -4.43 5.98 -4.17 6.17 -3.91 6.33 -3.66 6.48 -3.4 6.6 -3.15 6.7 -2.9 6.79 -2.65 6.85 -2.4 6.89 -2.15 6.92 -1.9 6.93 -1.65 6.91 -1.4 6.88 -1.15 6.83 -0.91 6.76 -0.65 6.67 -0.41 6.56 -0.15 6.44 0.09 6.29 0.35 6.13 0.61 5.94 0.87 5.76 1.13 5.54 1.4 5.31 1.68 5.06 1.96 4.79 2.26 4.49 2.56 0.13 11.75zm-0.13 -11.75l9.22 5.77 -9.09 5.98 -0.13 -11.75zm-137.54 97.78l-12.19 -6.69 0 0 1.91 -2.99 2.31 -2.86 2.68 -2.83 3.04 -2.84 3.38 -2.87 3.7 -2.93 4.01 -2.97 4.29 -3.02 4.55 -3.07 4.78 -3.11 4.98 -3.15 5.16 -3.18 5.32 -3.19 5.44 -3.2 5.54 -3.21 5.61 -3.2 5.65 -3.18 5.66 -3.16 5.65 -3.12 5.6 -3.07 5.53 -3.02 5.43 -2.96 5.3 -2.89 5.13 -2.81 4.94 -2.71 4.73 -2.61 4.47 -2.5 4.19 -2.37 3.88 -2.24 3.54 -2.09 3.15 -1.93 2.73 -1.74 7.61 11.67 -3 1.92 -3.35 2.05 -3.68 2.18 -3.99 2.3 -4.28 2.42 -4.54 2.54 -4.77 2.63 -4.97 2.73 -5.15 2.81 -5.3 2.89 -5.42 2.96 -5.51 3.02 -5.57 3.06 -5.61 3.1 -5.61 3.13 -5.59 3.15 -5.54 3.16 -5.45 3.15 -5.35 3.15 -5.2 3.13 -5.04 3.09 -4.83 3.05 -4.6 2.99 -4.33 2.93 -4.04 2.85 -3.71 2.75 -3.34 2.63 -2.94 2.51 -2.5 2.33 -2.01 2.12 -1.5 1.85 -0.94 1.46 0 0zm4.42 50.94l-10.92 8.61 0 0 -1.26 -1.67 -1.19 -1.72 -1.13 -1.77 -1.07 -1.82 -1 -1.87 -0.94 -1.91 -0.87 -1.94 -0.81 -1.98 -0.74 -2.01 -0.67 -2.04 -0.61 -2.07 -0.54 -2.1 -0.47 -2.12 -0.4 -2.15 -0.33 -2.16 -0.26 -2.17 -0.19 -2.19 -0.11 -2.19 -0.04 -2.2 0.04 -2.21 0.11 -2.21 0.19 -2.21 0.27 -2.21 0.36 -2.22 0.44 -2.2 0.52 -2.18 0.61 -2.17 0.7 -2.16 0.79 -2.13 0.87 -2.11 0.97 -2.08 1.06 -2.05 12.19 6.69 -0.79 1.53 -0.72 1.55 -0.65 1.58 -0.59 1.6 -0.52 1.63 -0.46 1.65 -0.4 1.67 -0.34 1.69 -0.27 1.69 -0.21 1.71 -0.15 1.72 -0.09 1.72 -0.03 1.72 0.03 1.72 0.09 1.73 0.14 1.71 0.2 1.71 0.26 1.7 0.31 1.68 0.37 1.67 0.42 1.64 0.48 1.62 0.53 1.6 0.57 1.56 0.62 1.54 0.67 1.5 0.72 1.46 0.76 1.42 0.81 1.38 0.85 1.34 0.88 1.28 0.93 1.23 0 0zm94.56 -12.19l7.02 12.03 0 0 -2.93 1.75 -3 1.83 -3.06 1.89 -3.12 1.94 -3.18 1.96 -3.22 1.98 -3.28 1.97 -3.33 1.95 -3.37 1.91 -3.41 1.87 -3.46 1.8 -3.5 1.71 -3.54 1.6 -3.57 1.49 -3.62 1.35 -3.66 1.19 -3.7 1.02 -3.74 0.81 -3.78 0.58 -3.81 0.35 -3.84 0.07 -3.86 -0.22 -3.88 -0.54 -3.87 -0.88 -3.84 -1.24 -3.8 -1.61 -3.74 -1.98 -3.66 -2.37 -3.58 -2.76 -3.49 -3.15 -3.39 -3.55 -3.3 -3.95 10.92 -8.61 2.72 3.26 2.72 2.84 2.7 2.44 2.7 2.07 2.68 1.74 2.67 1.41 2.67 1.13 2.68 0.86 2.7 0.62 2.73 0.38 2.78 0.16 2.83 -0.06 2.89 -0.26 2.93 -0.46 2.98 -0.65 3.03 -0.83 3.07 -1 3.1 -1.16 3.13 -1.3 3.16 -1.44 3.17 -1.54 3.17 -1.65 3.18 -1.74 3.19 -1.81 3.18 -1.87 3.17 -1.91 3.16 -1.93 3.15 -1.94 3.12 -1.94 3.11 -1.92 3.08 -1.88 3.06 -1.83 0 0zm102.34 -57.13l-6.27 12.45 6.44 -0.09 -3.01 1.65 -3.01 1.66 -3 1.68 -3 1.69 -2.99 1.71 -3 1.72 -2.99 1.73 -2.98 1.75 -2.99 1.76 -2.98 1.77 -2.98 1.78 -2.98 1.79 -2.98 1.79 -2.97 1.8 -2.98 1.81 -2.97 1.81 -2.97 1.81 -2.98 1.82 -2.97 1.82 -2.97 1.82 -2.98 1.82 -2.97 1.82 -2.98 1.82 -2.98 1.82 -2.98 1.81 -2.98 1.81 -2.98 1.8 -2.98 1.8 -2.99 1.8 -2.99 1.78 -2.98 1.78 -3 1.77 -7.02 -12.03 2.96 -1.75 2.96 -1.76 2.96 -1.77 2.96 -1.78 2.96 -1.79 2.96 -1.8 2.96 -1.8 2.96 -1.81 2.97 -1.81 2.97 -1.82 2.97 -1.81 2.97 -1.82 2.97 -1.82 2.98 -1.82 2.98 -1.83 2.99 -1.82 2.99 -1.82 3 -1.81 3 -1.81 3 -1.81 3 -1.8 3.01 -1.79 3.02 -1.79 3.02 -1.78 3.02 -1.77 3.04 -1.76 3.04 -1.75 3.05 -1.73 3.05 -1.72 3.06 -1.71 3.06 -1.69 3.07 -1.68 6.44 -0.09zm-6.44 0.09l3.2 -1.74 3.24 1.65 -6.44 0.09zm52.41 31.34l-7.91 11.46 0.41 0.27 -1.54 -0.93 -1.53 -0.96 -1.52 -0.98 -1.52 -1 -1.5 -1.02 -1.49 -1.03 -1.48 -1.04 -1.48 -1.06 -1.47 -1.07 -1.46 -1.07 -1.46 -1.08 -1.44 -1.08 -1.44 -1.08 -1.43 -1.07 -1.43 -1.07 -1.41 -1.06 -1.41 -1.05 -1.4 -1.04 -1.39 -1.03 -1.38 -1.01 -1.36 -0.99 -1.36 -0.96 -1.35 -0.95 -1.33 -0.92 -1.33 -0.89 -1.31 -0.87 -1.29 -0.83 -1.29 -0.8 -1.26 -0.76 -1.24 -0.71 -1.24 -0.68 -1.22 -0.63 6.27 -12.45 1.48 0.78 1.47 0.81 1.48 0.85 1.46 0.88 1.45 0.9 1.46 0.94 1.44 0.95 1.44 0.97 1.44 1 1.44 1.01 1.44 1.03 1.44 1.04 1.43 1.05 1.43 1.06 1.42 1.06 1.43 1.07 1.43 1.07 1.42 1.07 1.42 1.06 1.42 1.06 1.41 1.06 1.41 1.04 1.41 1.03 1.4 1.02 1.4 1 1.4 0.99 1.39 0.96 1.39 0.94 1.37 0.91 1.37 0.89 1.37 0.85 1.36 0.82 0.41 0.27zm-0.41 -0.27l0.2 0.12 0.22 0.15 -0.41 -0.27zm82.76 74.53l-90.26 -62.8 7.91 -11.46 90.26 62.8 0.2 0.15 -8.11 11.32zm7.91 -11.46l0.09 0.06 0.11 0.08 -0.2 -0.15zm80.42 77.72l-13.8 1.53 0 0 -0.26 -1.53 -0.49 -1.69 -0.73 -1.84 -0.97 -1.97 -1.21 -2.08 -1.45 -2.16 -1.67 -2.24 -1.88 -2.3 -2.07 -2.34 -2.25 -2.38 -2.41 -2.4 -2.56 -2.42 -2.68 -2.43 -2.79 -2.43 -2.89 -2.42 -2.97 -2.41 -3.03 -2.39 -3.07 -2.37 -3.11 -2.34 -3.12 -2.31 -3.12 -2.27 -3.1 -2.23 -3.07 -2.18 -3.03 -2.13 -2.96 -2.07 -2.89 -2.01 -2.8 -1.94 -2.7 -1.88 -2.57 -1.81 -2.44 -1.73 -2.3 -1.66 -2.14 -1.58 8.31 -11.17 2 1.47 2.19 1.58 2.37 1.69 2.52 1.78 2.67 1.86 2.79 1.94 2.9 2.02 2.99 2.09 3.07 2.16 3.13 2.22 3.17 2.28 3.2 2.33 3.22 2.38 3.22 2.43 3.2 2.46 3.17 2.5 3.13 2.54 3.07 2.57 2.99 2.6 2.9 2.63 2.8 2.65 2.68 2.68 2.55 2.7 2.41 2.72 2.25 2.75 2.07 2.78 1.88 2.82 1.67 2.87 1.44 2.92 1.18 2.99 0.88 3.07 0.54 3.15 0 0zm-40.94 50.26l0.46 -13.94 0 0 1.49 0 1.46 -0.09 1.42 -0.19 1.39 -0.27 1.36 -0.36 1.33 -0.44 1.3 -0.52 1.28 -0.6 1.24 -0.69 1.21 -0.76 1.17 -0.83 1.13 -0.9 1.1 -0.98 1.06 -1.05 1.01 -1.11 0.97 -1.19 0.91 -1.23 0.85 -1.3 0.8 -1.35 0.74 -1.41 0.69 -1.45 0.62 -1.49 0.56 -1.54 0.48 -1.57 0.41 -1.61 0.34 -1.63 0.26 -1.67 0.19 -1.69 0.11 -1.7 0.02 -1.72 -0.06 -1.74 -0.15 -1.75 13.8 -1.53 0.2 2.43 0.09 2.41 -0.03 2.41 -0.15 2.38 -0.26 2.34 -0.36 2.32 -0.47 2.29 -0.57 2.24 -0.68 2.21 -0.78 2.16 -0.87 2.11 -0.97 2.06 -1.06 1.99 -1.15 1.94 -1.25 1.88 -1.33 1.8 -1.41 1.72 -1.5 1.65 -1.58 1.57 -1.66 1.48 -1.74 1.39 -1.82 1.29 -1.89 1.18 -1.96 1.07 -2.02 0.96 -2.09 0.84 -2.15 0.71 -2.21 0.58 -2.26 0.44 -2.31 0.3 -2.34 0.15 -2.37 0 0 0zm-86.62 -60.45l-13.64 -2.64 5.35 -5.5 3.15 -0.31 2.98 0.29 2.83 0.69 2.79 0.99 2.8 1.25 2.85 1.47 2.92 1.67 3.01 1.85 3.08 2.02 3.16 2.17 3.23 2.29 3.3 2.4 3.35 2.48 3.39 2.56 3.43 2.6 3.45 2.63 3.45 2.63 3.46 2.61 3.44 2.57 3.4 2.51 3.37 2.42 3.31 2.32 3.23 2.19 3.14 2.03 3.04 1.87 2.9 1.66 2.74 1.44 2.56 1.2 2.35 0.94 2.08 0.67 1.77 0.39 1.4 0.15 -0.46 13.94 -3.19 -0.32 -3.15 -0.7 -3.15 -1 -3.17 -1.27 -3.2 -1.49 -3.26 -1.71 -3.3 -1.9 -3.35 -2.06 -3.4 -2.2 -3.44 -2.33 -3.47 -2.43 -3.5 -2.52 -3.51 -2.58 -3.51 -2.63 -3.5 -2.64 -3.48 -2.64 -3.44 -2.63 -3.4 -2.57 -3.34 -2.51 -3.26 -2.42 -3.18 -2.31 -3.07 -2.18 -2.95 -2.02 -2.81 -1.84 -2.65 -1.63 -2.46 -1.41 -2.24 -1.15 -1.96 -0.88 -1.64 -0.59 -1.22 -0.31 -0.69 -0.07 -0.1 -0 5.35 -5.5zm-13.64 -2.64l0.87 -4.52 4.48 -0.97 -5.35 5.5zm20.06 10.56l-8.18 11.28 0 -0 -0.68 -0.5 -0.68 -0.48 -0.65 -0.47 -0.62 -0.44 -0.64 -0.46 -0.59 -0.43 -0.59 -0.43 -0.59 -0.44 -0.58 -0.45 -0.57 -0.46 -0.56 -0.47 -0.57 -0.5 -0.56 -0.54 -0.54 -0.55 -0.56 -0.62 -0.54 -0.68 -0.49 -0.69 -0.47 -0.74 -0.45 -0.83 -0.38 -0.84 -0.32 -0.86 -0.28 -0.91 -0.21 -0.92 -0.15 -0.93 -0.09 -0.89 -0.04 -0.91 0 -0.91 0.04 -0.88 0.08 -0.88 0.11 -0.91 0.14 -0.91 0.16 -0.91 13.64 2.64 -0.11 0.59 -0.08 0.5 -0.05 0.43 -0.03 0.39 -0.02 0.32 -0 0.23 0.01 0.17 0.01 0.14 0.01 0.05 0 0.01 -0.01 -0.02 0 -0.01 -0.01 -0.02 -0.02 -0.03 0.02 0.03 0.04 0.06 0.05 0.06 0.09 0.1 0.16 0.17 0.2 0.19 0.24 0.22 0.31 0.26 0.35 0.28 0.4 0.31 0.44 0.33 0.5 0.37 0.56 0.41 0.57 0.41 0.65 0.46 0.67 0.48 0.7 0.5 0.75 0.55 0 -0zm73.69 57.77l-12.65 5.75 0 0 -0.45 -0.86 -0.69 -1.07 -0.94 -1.25 -1.17 -1.39 -1.39 -1.5 -1.59 -1.59 -1.76 -1.65 -1.94 -1.71 -2.08 -1.76 -2.22 -1.8 -2.34 -1.83 -2.44 -1.85 -2.53 -1.87 -2.61 -1.89 -2.67 -1.89 -2.72 -1.89 -2.76 -1.89 -2.78 -1.88 -2.79 -1.86 -2.78 -1.85 -2.77 -1.81 -2.74 -1.79 -2.7 -1.76 -2.63 -1.72 -2.58 -1.67 -2.49 -1.63 -2.41 -1.58 -2.3 -1.53 -2.18 -1.46 -2.06 -1.41 -1.92 -1.34 -1.78 -1.28 8.18 -11.28 1.6 1.15 1.79 1.25 1.95 1.33 2.11 1.41 2.24 1.49 2.36 1.55 2.47 1.61 2.56 1.67 2.65 1.72 2.7 1.76 2.76 1.8 2.81 1.85 2.82 1.87 2.85 1.89 2.84 1.93 2.83 1.93 2.82 1.96 2.77 1.96 2.72 1.96 2.67 1.97 2.59 1.96 2.51 1.97 2.42 1.96 2.31 1.95 2.19 1.94 2.08 1.94 1.93 1.93 1.79 1.93 1.65 1.95 1.48 1.98 1.31 2.04 1.1 2.14 0 0zm-44.15 64.96l3.17 -13.58 -0 0 1.93 0.37 1.89 0.2 1.86 0.05 1.82 -0.1 1.8 -0.25 1.76 -0.38 1.72 -0.52 1.7 -0.65 1.65 -0.78 1.6 -0.91 1.56 -1.04 1.49 -1.15 1.42 -1.27 1.36 -1.39 1.28 -1.49 1.19 -1.59 1.1 -1.69 1 -1.77 0.89 -1.85 0.79 -1.94 0.67 -2.01 0.54 -2.07 0.41 -2.14 0.28 -2.19 0.14 -2.24 -0 -2.3 -0.16 -2.33 -0.32 -2.38 -0.48 -2.41 -0.66 -2.44 -0.84 -2.48 -1.04 -2.5 12.65 -5.75 1.37 3.31 1.13 3.32 0.9 3.32 0.67 3.3 0.44 3.28 0.22 3.25 0.01 3.2 -0.19 3.16 -0.4 3.09 -0.59 3.02 -0.77 2.95 -0.95 2.86 -1.12 2.77 -1.28 2.67 -1.44 2.56 -1.59 2.44 -1.74 2.32 -1.88 2.19 -2 2.05 -2.14 1.91 -2.26 1.74 -2.37 1.58 -2.48 1.41 -2.58 1.22 -2.67 1.03 -2.76 0.83 -2.83 0.61 -2.89 0.39 -2.95 0.16 -2.98 -0.08 -3.01 -0.33 -3.02 -0.58 -0 0zm-32.75 -21.04l7.86 -11.5 -0 0 0.78 0.54 0.8 0.57 0.83 0.61 0.85 0.64 0.88 0.67 0.9 0.69 0.91 0.7 0.94 0.72 0.96 0.74 0.98 0.75 0.99 0.76 1 0.77 1.01 0.77 1.02 0.77 1.02 0.76 1.02 0.76 1.02 0.74 1.02 0.72 1.01 0.7 0.99 0.68 0.97 0.65 0.96 0.62 0.94 0.59 0.9 0.54 0.86 0.49 0.84 0.46 0.79 0.4 0.73 0.35 0.68 0.3 0.58 0.22 0.5 0.17 0.4 0.11 -3.17 13.58 -1.21 -0.33 -1.2 -0.39 -1.17 -0.45 -1.13 -0.49 -1.14 -0.54 -1.13 -0.58 -1.12 -0.61 -1.14 -0.66 -1.13 -0.69 -1.11 -0.7 -1.12 -0.72 -1.13 -0.76 -1.12 -0.77 -1.12 -0.78 -1.11 -0.8 -1.11 -0.8 -1.09 -0.8 -1.08 -0.81 -1.07 -0.81 -1.05 -0.8 -1.03 -0.79 -1.01 -0.77 -0.99 -0.77 -0.95 -0.74 -0.93 -0.72 -0.9 -0.69 -0.86 -0.66 -0.81 -0.62 -0.77 -0.57 -0.72 -0.54 -0.67 -0.48 -0.61 -0.43 -0 0zm-47.67 -42.15l-13.18 -4.38 6.02 -4.76 2.2 0.03 1.92 0.33 1.78 0.52 1.73 0.65 1.74 0.77 1.78 0.89 1.82 0.98 1.88 1.08 1.94 1.18 1.99 1.26 2.04 1.33 2.09 1.41 2.13 1.46 2.17 1.52 2.19 1.57 2.2 1.6 2.22 1.63 2.22 1.65 2.22 1.66 2.2 1.66 2.18 1.65 2.15 1.63 2.11 1.61 2.07 1.57 2.02 1.53 1.95 1.48 1.87 1.41 1.79 1.34 1.69 1.25 1.59 1.16 1.47 1.06 1.34 0.94 -7.86 11.5 -1.49 -1.05 -1.58 -1.13 -1.68 -1.22 -1.76 -1.3 -1.83 -1.37 -1.91 -1.44 -1.96 -1.49 -2.02 -1.53 -2.07 -1.57 -2.11 -1.6 -2.14 -1.62 -2.16 -1.63 -2.17 -1.63 -2.17 -1.63 -2.17 -1.61 -2.16 -1.59 -2.14 -1.55 -2.1 -1.5 -2.06 -1.45 -2.01 -1.39 -1.95 -1.31 -1.88 -1.22 -1.8 -1.14 -1.69 -1.03 -1.58 -0.91 -1.46 -0.79 -1.29 -0.64 -1.11 -0.49 -0.88 -0.33 -0.57 -0.17 -0.17 -0.04 0.4 -0.01 6.02 -4.76zm-13.18 -4.38l1.44 -4.38 4.57 -0.38 -6.02 4.76zm28.1 18.39l-8.64 10.92 0 0 -1.03 -0.8 -1.01 -0.74 -1 -0.7 -0.98 -0.65 -0.95 -0.61 -0.94 -0.57 -0.93 -0.55 -0.92 -0.53 -0.9 -0.5 -0.9 -0.5 -0.89 -0.5 -0.88 -0.5 -0.87 -0.52 -0.89 -0.55 -0.89 -0.59 -0.88 -0.63 -0.89 -0.7 -0.89 -0.8 -0.87 -0.91 -0.8 -1 -0.75 -1.13 -0.66 -1.26 -0.52 -1.32 -0.39 -1.38 -0.24 -1.43 -0.1 -1.41 0.02 -1.41 0.13 -1.41 0.22 -1.4 0.3 -1.42 0.38 -1.43 0.46 -1.48 13.18 4.38 -0.3 0.97 -0.22 0.85 -0.15 0.7 -0.09 0.56 -0.04 0.42 -0 0.29 0.01 0.15 0 0.04 -0.01 -0.03 -0.02 -0.05 -0.04 -0.07 -0.01 -0.02 0.05 0.06 0.09 0.09 0.18 0.16 0.29 0.23 0.39 0.28 0.48 0.32 0.57 0.35 0.69 0.4 0.77 0.44 0.83 0.46 0.91 0.5 0.98 0.55 1.03 0.59 1.09 0.64 1.15 0.7 1.19 0.76 1.22 0.81 1.26 0.88 1.3 0.95 1.32 1.03 0 0zm23.75 18l-8.25 11.21 -0 0 -0.73 -0.54 -0.73 -0.54 -0.72 -0.53 -0.72 -0.54 -0.74 -0.55 -0.74 -0.55 -0.72 -0.54 -0.73 -0.54 -0.72 -0.54 -0.74 -0.55 -0.75 -0.56 -0.74 -0.56 -0.74 -0.55 -0.74 -0.55 -0.75 -0.56 -0.74 -0.56 -0.75 -0.56 -0.76 -0.57 -0.75 -0.57 -0.76 -0.57 -0.76 -0.58 -0.77 -0.58 -0.77 -0.59 -0.76 -0.58 -0.78 -0.59 -0.79 -0.61 -0.78 -0.61 -0.78 -0.61 -0.79 -0.62 -0.79 -0.62 -0.79 -0.63 -0.8 -0.63 8.64 -10.92 0.77 0.61 0.77 0.61 0.77 0.61 0.76 0.59 0.76 0.59 0.76 0.59 0.75 0.58 0.75 0.58 0.76 0.59 0.74 0.57 0.74 0.57 0.74 0.57 0.74 0.56 0.75 0.56 0.74 0.56 0.74 0.56 0.74 0.56 0.73 0.55 0.74 0.55 0.74 0.55 0.74 0.55 0.72 0.54 0.73 0.54 0.74 0.55 0.73 0.54 0.74 0.55 0.72 0.54 0.72 0.53 0.74 0.54 0.74 0.55 0.73 0.54 0.73 0.54 -0 0zm26.79 63.08l-13.05 -4.77 0 0 0.91 -2.71 0.71 -2.57 0.53 -2.44 0.36 -2.3 0.2 -2.18 0.06 -2.06 -0.07 -1.95 -0.19 -1.86 -0.3 -1.76 -0.41 -1.68 -0.5 -1.61 -0.6 -1.55 -0.68 -1.48 -0.77 -1.44 -0.85 -1.4 -0.92 -1.34 -1 -1.31 -1.05 -1.27 -1.11 -1.22 -1.17 -1.2 -1.21 -1.15 -1.24 -1.11 -1.28 -1.07 -1.29 -1.05 -1.3 -1.01 -1.31 -0.98 -1.3 -0.94 -1.29 -0.92 -1.28 -0.91 -1.25 -0.88 -1.21 -0.87 -1.18 -0.86 8.25 -11.21 1.03 0.75 1.13 0.81 1.22 0.87 1.3 0.92 1.37 0.98 1.43 1.05 1.47 1.1 1.51 1.17 1.53 1.24 1.54 1.31 1.55 1.39 1.54 1.47 1.51 1.54 1.49 1.65 1.44 1.74 1.39 1.83 1.33 1.95 1.24 2.04 1.15 2.15 1.04 2.27 0.91 2.37 0.78 2.48 0.63 2.59 0.46 2.69 0.29 2.78 0.11 2.88 -0.09 2.97 -0.28 3.06 -0.49 3.14 -0.7 3.22 -0.91 3.3 -1.13 3.39 0 0zm-63.89 16.63l8.31 -11.17 0 -0 1.45 1.03 1.49 0.93 1.51 0.84 1.53 0.74 1.56 0.65 1.58 0.57 1.58 0.47 1.59 0.38 1.6 0.3 1.59 0.2 1.6 0.12 1.59 0.03 1.57 -0.06 1.55 -0.14 1.53 -0.22 1.5 -0.31 1.48 -0.39 1.44 -0.47 1.4 -0.55 1.36 -0.63 1.31 -0.71 1.28 -0.79 1.21 -0.86 1.16 -0.94 1.11 -1.02 1.05 -1.09 0.99 -1.18 0.93 -1.26 0.86 -1.34 0.79 -1.42 0.72 -1.52 0.64 -1.61 13.05 4.77 -0.96 2.42 -1.09 2.32 -1.23 2.21 -1.34 2.09 -1.45 1.98 -1.57 1.86 -1.66 1.74 -1.76 1.61 -1.85 1.49 -1.92 1.36 -1.98 1.23 -2.06 1.11 -2.11 0.98 -2.16 0.85 -2.2 0.72 -2.23 0.59 -2.28 0.47 -2.3 0.33 -2.31 0.21 -2.34 0.08 -2.33 -0.05 -2.33 -0.17 -2.34 -0.3 -2.33 -0.43 -2.33 -0.56 -2.3 -0.69 -2.27 -0.81 -2.25 -0.94 -2.22 -1.08 -2.17 -1.2 -2.12 -1.33 -2.07 -1.46 0 -0zm-35.6 -34.1l-12.47 -6.13 4.59 -3.71 2.15 -0.32 2.03 0.03 1.9 0.28 1.8 0.45 1.72 0.59 1.69 0.7 1.68 0.81 1.67 0.9 1.67 0.98 1.68 1.06 1.7 1.13 1.69 1.19 1.7 1.24 1.72 1.3 1.72 1.33 1.72 1.36 1.71 1.39 1.71 1.4 1.7 1.42 1.68 1.42 1.66 1.42 1.63 1.4 1.59 1.37 1.56 1.35 1.52 1.31 1.46 1.26 1.41 1.2 1.34 1.13 1.27 1.06 1.2 0.98 1.1 0.87 1 0.77 -8.31 11.17 -1.22 -0.93 -1.27 -1.01 -1.31 -1.07 -1.37 -1.13 -1.41 -1.2 -1.45 -1.24 -1.49 -1.28 -1.52 -1.31 -1.56 -1.34 -1.59 -1.37 -1.6 -1.37 -1.62 -1.38 -1.62 -1.37 -1.63 -1.36 -1.63 -1.34 -1.62 -1.31 -1.6 -1.27 -1.59 -1.23 -1.54 -1.16 -1.52 -1.1 -1.47 -1.03 -1.41 -0.94 -1.35 -0.85 -1.27 -0.75 -1.19 -0.63 -1.06 -0.52 -0.93 -0.39 -0.77 -0.26 -0.56 -0.15 -0.31 -0.05 -0.01 -0 0.28 -0.05 4.59 -3.71zm-12.47 -6.13l1.43 -2.94 3.16 -0.78 -4.59 3.71zm12.33 9.74l-11.09 8.39 -0.22 -0.32 3.18 2.59 -0.2 -0.08 -0.37 -0.17 -0.2 -0.1 -0.3 -0.16 -0.41 -0.24 -0.39 -0.25 -0.42 -0.3 -0.44 -0.35 -0.46 -0.4 -0.46 -0.46 -0.46 -0.52 -0.47 -0.61 -0.38 -0.57 -0.39 -0.67 -0.35 -0.74 -0.31 -0.76 -0.26 -0.82 -0.21 -0.84 -0.15 -0.88 -0.09 -0.89 -0.03 -0.9 0.02 -0.87 0.07 -0.93 0.13 -0.95 0.18 -0.94 0.23 -0.95 0.29 -0.99 0.33 -0.98 0.38 -0.99 0.44 -1.04 0.49 -1.05 12.47 6.13 -0.3 0.64 -0.24 0.56 -0.2 0.52 -0.15 0.45 -0.11 0.37 -0.07 0.31 -0.05 0.26 -0.02 0.17 -0.01 0.12 0 0.11 0 0.02 -0 -0.04 -0.02 -0.09 -0.03 -0.11 -0.05 -0.15 -0.06 -0.15 -0.09 -0.18 -0.09 -0.17 -0.07 -0.11 -0.15 -0.2 -0.13 -0.15 -0.14 -0.14 -0.13 -0.12 -0.14 -0.11 -0.13 -0.09 -0.12 -0.07 -0.16 -0.09 -0.09 -0.05 -0.03 -0.02 -0.24 -0.11 -0.11 -0.05 3.21 2.61 -0.22 -0.32zm-11.09 8.39l-0.07 -0.09 -0.15 -0.22 0.22 0.32zm28.83 58.56l-10.76 -8.82 0 0 1.95 -2.6 1.57 -2.48 1.22 -2.38 0.91 -2.27 0.63 -2.17 0.39 -2.09 0.17 -2.04 -0.03 -1.98 -0.22 -1.94 -0.39 -1.93 -0.55 -1.89 -0.72 -1.88 -0.85 -1.85 -0.99 -1.82 -1.11 -1.78 -1.21 -1.72 -1.3 -1.67 -1.37 -1.6 -1.41 -1.53 -1.43 -1.45 -1.43 -1.35 -1.42 -1.26 -1.38 -1.17 -1.32 -1.06 -1.23 -0.94 -1.13 -0.83 -1.01 -0.71 -0.86 -0.58 -0.69 -0.44 -0.51 -0.32 -0.3 -0.18 -2.08 -1.84 11.09 -8.39 -1.83 -1.69 0.44 0.27 0.67 0.42 0.87 0.57 1.05 0.71 1.21 0.85 1.36 0.99 1.48 1.13 1.58 1.26 1.65 1.39 1.71 1.53 1.75 1.66 1.77 1.79 1.76 1.92 1.74 2.04 1.69 2.18 1.63 2.31 1.52 2.44 1.41 2.58 1.26 2.72 1.08 2.85 0.87 2.99 0.63 3.11 0.36 3.24 0.04 3.34 -0.29 3.41 -0.64 3.47 -1.02 3.5 -1.41 3.51 -1.8 3.5 -2.2 3.49 -2.6 3.46 0 0zm-44.23 10.54l8.02 -11.39 -0.43 -0.28 1.13 0.64 1.09 0.54 1.05 0.45 1 0.36 0.96 0.28 0.93 0.22 0.9 0.15 0.88 0.09 0.85 0.03 0.83 -0.02 0.83 -0.07 0.82 -0.12 0.81 -0.17 0.8 -0.21 0.8 -0.26 0.8 -0.31 0.8 -0.35 0.78 -0.39 0.79 -0.44 0.78 -0.47 0.77 -0.51 0.77 -0.55 0.74 -0.57 0.74 -0.61 0.72 -0.63 0.7 -0.65 0.69 -0.67 0.67 -0.68 0.65 -0.69 0.62 -0.69 0.6 -0.7 0.58 -0.69 10.76 8.82 -0.74 0.9 -0.78 0.9 -0.83 0.93 -0.87 0.92 -0.9 0.91 -0.94 0.92 -0.99 0.91 -1.02 0.88 -1.07 0.87 -1.12 0.86 -1.15 0.81 -1.2 0.8 -1.26 0.76 -1.3 0.71 -1.35 0.67 -1.39 0.61 -1.43 0.55 -1.5 0.49 -1.54 0.41 -1.58 0.33 -1.61 0.24 -1.65 0.15 -1.7 0.05 -1.73 -0.06 -1.74 -0.17 -1.76 -0.29 -1.77 -0.41 -1.78 -0.52 -1.78 -0.65 -1.77 -0.76 -1.77 -0.89 -1.77 -1 -0.43 -0.28zm0.43 0.28l-0.24 -0.14 -0.19 -0.14 0.43 0.28zm-21.47 -32.29l29.06 20.62 -8.02 11.39 -29.06 -20.62 -0.28 -11.18 8.3 -0.21zm-8.02 11.39l-7.61 -5.4 7.33 -5.78 0.28 11.18zm18.86 -57.53l13.44 -3.52 -0 0 0.68 2.88 0.53 2.82 0.39 2.77 0.25 2.72 0.11 2.66 -0.02 2.6 -0.15 2.54 -0.27 2.48 -0.39 2.41 -0.49 2.33 -0.59 2.28 -0.69 2.21 -0.78 2.13 -0.86 2.07 -0.94 1.99 -1 1.92 -1.06 1.85 -1.12 1.78 -1.16 1.71 -1.2 1.64 -1.23 1.58 -1.26 1.51 -1.28 1.45 -1.3 1.39 -1.3 1.33 -1.31 1.28 -1.3 1.22 -1.3 1.16 -1.28 1.11 -1.26 1.06 -1.22 1 -1.2 0.96 -8.58 -10.97 1.07 -0.86 1.1 -0.89 1.1 -0.92 1.11 -0.96 1.1 -0.99 1.1 -1.03 1.09 -1.06 1.07 -1.09 1.05 -1.13 1.03 -1.17 1 -1.2 0.96 -1.23 0.93 -1.26 0.89 -1.31 0.84 -1.34 0.79 -1.37 0.74 -1.41 0.68 -1.45 0.62 -1.48 0.56 -1.54 0.5 -1.57 0.42 -1.61 0.35 -1.67 0.28 -1.72 0.19 -1.78 0.11 -1.84 0.02 -1.9 -0.09 -1.97 -0.19 -2.04 -0.3 -2.11 -0.41 -2.19 -0.53 -2.27 -0 0zm-12.44 -18.94l8.83 -10.76 0 -0 0.61 0.52 0.62 0.54 0.62 0.56 0.61 0.57 0.63 0.6 0.63 0.63 0.61 0.63 0.61 0.65 0.63 0.7 0.61 0.69 0.61 0.71 0.62 0.75 0.59 0.74 0.59 0.77 0.59 0.8 0.57 0.81 0.57 0.83 0.56 0.85 0.55 0.87 0.53 0.89 0.53 0.91 0.5 0.93 0.49 0.94 0.48 0.98 0.46 0.98 0.44 0.99 0.43 1.03 0.4 1.04 0.37 1.05 0.35 1.07 0.33 1.09 0.31 1.11 -13.44 3.52 -0.2 -0.76 -0.22 -0.74 -0.24 -0.74 -0.26 -0.74 -0.28 -0.72 -0.29 -0.71 -0.32 -0.72 -0.32 -0.7 -0.33 -0.67 -0.36 -0.69 -0.37 -0.67 -0.38 -0.66 -0.4 -0.66 -0.4 -0.64 -0.41 -0.63 -0.43 -0.62 -0.43 -0.61 -0.43 -0.58 -0.45 -0.58 -0.46 -0.58 -0.44 -0.53 -0.46 -0.54 -0.46 -0.54 -0.44 -0.48 -0.47 -0.5 -0.47 -0.48 -0.45 -0.44 -0.45 -0.43 -0.47 -0.43 -0.44 -0.4 -0.44 -0.38 -0.44 -0.37 0 -0zm-28.01 -17.61l13.13 4.54 -4.08 -8.78 0.84 0.31 0.8 0.28 0.78 0.25 0.76 0.22 0.74 0.2 0.74 0.19 0.71 0.17 0.71 0.15 0.72 0.15 0.73 0.15 0.74 0.15 0.73 0.14 0.75 0.15 0.8 0.16 0.81 0.17 0.83 0.19 0.84 0.2 0.85 0.23 0.89 0.26 0.94 0.31 0.93 0.33 0.93 0.37 0.96 0.41 0.98 0.46 0.99 0.5 1 0.56 1.01 0.6 1.03 0.66 1.03 0.7 1.06 0.76 1.07 0.83 1.08 0.87 -8.83 10.76 -0.83 -0.67 -0.77 -0.59 -0.74 -0.53 -0.71 -0.48 -0.66 -0.42 -0.64 -0.38 -0.6 -0.33 -0.57 -0.29 -0.57 -0.27 -0.55 -0.23 -0.56 -0.22 -0.54 -0.2 -0.52 -0.17 -0.55 -0.16 -0.59 -0.16 -0.59 -0.15 -0.61 -0.14 -0.63 -0.13 -0.66 -0.13 -0.72 -0.14 -0.76 -0.15 -0.77 -0.15 -0.81 -0.16 -0.85 -0.18 -0.9 -0.2 -0.93 -0.22 -0.95 -0.24 -1 -0.27 -1.04 -0.31 -1.07 -0.34 -1.11 -0.38 -1.13 -0.42 -4.08 -8.78zm4.08 8.78l-6.27 -2.41 2.19 -6.38 4.08 8.78zm-62.99 -64.76l13.72 -2.18 -9.86 -5.2 4.41 -1.96 4.35 -1.63 4.3 -1.3 4.24 -0.97 4.17 -0.64 4.09 -0.32 4 -0 3.9 0.31 3.79 0.62 3.66 0.93 3.52 1.22 3.36 1.5 3.2 1.78 3.01 2.05 2.81 2.3 2.61 2.53 2.39 2.75 2.17 2.95 1.93 3.15 1.7 3.32 1.46 3.48 1.21 3.63 0.97 3.77 0.71 3.9 0.46 4.01 0.2 4.12 -0.06 4.21 -0.32 4.31 -0.6 4.38 -0.87 4.44 -1.15 4.51 -1.43 4.56 -13.13 -4.54 1.2 -3.84 0.96 -3.76 0.72 -3.67 0.48 -3.56 0.26 -3.46 0.05 -3.35 -0.16 -3.22 -0.35 -3.09 -0.54 -2.95 -0.72 -2.81 -0.89 -2.67 -1.05 -2.51 -1.21 -2.36 -1.35 -2.19 -1.49 -2.03 -1.62 -1.87 -1.76 -1.7 -1.88 -1.53 -2 -1.36 -2.12 -1.19 -2.26 -1.01 -2.38 -0.83 -2.51 -0.63 -2.64 -0.43 -2.77 -0.22 -2.91 0 -3.04 0.24 -3.17 0.49 -3.3 0.75 -3.42 1.04 -3.54 1.32 -3.65 1.63 -9.86 -5.2zm9.86 5.2l-8.4 4.04 -1.46 -9.24 9.86 5.2zm-86.69 -33.82l13.79 -1.69 -11.7 -4.19 2.84 -2.61 2.92 -2.45 3 -2.29 3.08 -2.11 3.13 -1.93 3.19 -1.74 3.25 -1.55 3.29 -1.35 3.33 -1.14 3.37 -0.92 3.39 -0.68 3.4 -0.44 3.42 -0.2 3.41 0.07 3.39 0.35 3.36 0.63 3.31 0.93 3.24 1.23 3.16 1.54 3.05 1.84 2.92 2.15 2.78 2.45 2.63 2.75 2.46 3.04 2.29 3.33 2.11 3.61 1.93 3.91 1.75 4.19 1.56 4.48 1.37 4.77 1.17 5.07 0.97 5.37 -13.72 2.18 -0.85 -4.74 -1.02 -4.39 -1.16 -4.05 -1.29 -3.72 -1.41 -3.39 -1.52 -3.06 -1.61 -2.76 -1.69 -2.46 -1.76 -2.18 -1.82 -1.9 -1.87 -1.65 -1.92 -1.41 -1.98 -1.2 -2.02 -0.98 -2.07 -0.79 -2.13 -0.6 -2.2 -0.41 -2.26 -0.23 -2.31 -0.05 -2.37 0.13 -2.43 0.32 -2.46 0.5 -2.5 0.69 -2.53 0.86 -2.54 1.04 -2.55 1.22 -2.55 1.39 -2.53 1.56 -2.5 1.72 -2.47 1.88 -2.43 2.04 -2.37 2.18 -11.7 -4.19zm11.7 4.19l-10.02 9.66 -1.68 -13.85 11.7 4.19zm-38.93 -41.37l2.62 -13.69 0 0 2.19 0.48 2.12 0.58 2.07 0.69 2.02 0.79 1.94 0.88 1.88 0.97 1.82 1.06 1.75 1.14 1.68 1.22 1.61 1.3 1.54 1.37 1.47 1.43 1.41 1.5 1.34 1.56 1.27 1.6 1.2 1.66 1.14 1.71 1.07 1.75 1.01 1.79 0.95 1.82 0.89 1.86 0.83 1.89 0.77 1.92 0.71 1.94 0.65 1.98 0.6 2 0.54 2.01 0.49 2.03 0.44 2.06 0.38 2.06 0.33 2.07 0.28 2.08 -13.79 1.69 -0.23 -1.74 -0.28 -1.73 -0.31 -1.71 -0.36 -1.69 -0.4 -1.67 -0.44 -1.64 -0.48 -1.62 -0.53 -1.58 -0.56 -1.55 -0.61 -1.52 -0.65 -1.48 -0.69 -1.44 -0.72 -1.4 -0.76 -1.35 -0.8 -1.31 -0.84 -1.25 -0.87 -1.2 -0.91 -1.16 -0.94 -1.1 -0.98 -1.05 -1.02 -0.99 -1.06 -0.93 -1.09 -0.88 -1.13 -0.82 -1.16 -0.76 -1.2 -0.7 -1.24 -0.64 -1.29 -0.59 -1.33 -0.52 -1.38 -0.46 -1.44 -0.39 -1.49 -0.33 0 0zm-57.2 18.24l13.39 -3.71 -10.76 -3.8 1.14 -0.85 1.14 -0.91 1.15 -0.96 1.17 -1.01 1.18 -1.06 1.2 -1.09 1.23 -1.13 1.25 -1.15 1.28 -1.18 1.32 -1.19 1.35 -1.19 1.39 -1.2 1.45 -1.19 1.49 -1.18 1.55 -1.15 1.61 -1.13 1.69 -1.09 1.76 -1.04 1.83 -0.99 1.9 -0.92 1.98 -0.84 2.06 -0.76 2.16 -0.66 2.22 -0.56 2.31 -0.45 2.39 -0.33 2.47 -0.2 2.54 -0.07 2.63 0.06 2.7 0.2 2.78 0.34 2.87 0.49 -2.62 13.69 -2.26 -0.38 -2.14 -0.26 -2.02 -0.15 -1.91 -0.04 -1.82 0.06 -1.72 0.14 -1.64 0.22 -1.57 0.31 -1.51 0.38 -1.44 0.45 -1.39 0.51 -1.37 0.58 -1.33 0.64 -1.3 0.7 -1.27 0.76 -1.25 0.81 -1.24 0.87 -1.24 0.93 -1.22 0.96 -1.21 1 -1.21 1.04 -1.22 1.08 -1.22 1.11 -1.23 1.13 -1.24 1.15 -1.26 1.16 -1.28 1.17 -1.31 1.17 -1.34 1.16 -1.37 1.15 -1.43 1.13 -1.46 1.1 -10.76 -3.8zm10.76 3.8l-8.1 5.88 -2.66 -9.68 10.76 3.8zm482.21 -152.4l13.38 -3.74 0 0 1.27 4.81 1.11 4.69 0.97 4.58 0.82 4.47 0.69 4.38 0.54 4.28 0.42 4.19 0.3 4.11 0.17 4.04 0.06 3.96 -0.05 3.91 -0.15 3.85 -0.25 3.79 -0.33 3.75 -0.42 3.7 -0.5 3.67 -0.57 3.65 -0.63 3.62 -0.69 3.61 -0.75 3.6 -0.79 3.6 -0.83 3.61 -0.87 3.62 -0.9 3.64 -0.92 3.67 -0.94 3.7 -0.95 3.76 -0.96 3.81 -0.96 3.87 -0.96 3.94 -0.95 4.02 -0.94 4.11 -13.54 -3.06 0.96 -4.22 0.98 -4.12 0.98 -4.02 0.98 -3.93 0.97 -3.84 0.95 -3.76 0.93 -3.7 0.91 -3.63 0.88 -3.57 0.85 -3.52 0.8 -3.48 0.76 -3.44 0.71 -3.42 0.65 -3.39 0.59 -3.38 0.53 -3.37 0.46 -3.38 0.39 -3.39 0.3 -3.41 0.22 -3.44 0.14 -3.48 0.04 -3.52 -0.05 -3.58 -0.16 -3.64 -0.26 -3.71 -0.38 -3.81 -0.5 -3.89 -0.62 -3.99 -0.76 -4.11 -0.89 -4.22 -1.04 -4.35 -1.19 -4.48 0 0zm-54.68 -76.61l8.13 -11.31 0 0 2.23 1.64 2.23 1.69 2.23 1.74 2.24 1.79 2.23 1.85 2.22 1.9 2.21 1.96 2.19 2.02 2.19 2.08 2.17 2.14 2.14 2.2 2.12 2.27 2.1 2.33 2.06 2.4 2.04 2.47 2 2.54 1.96 2.61 1.93 2.68 1.89 2.76 1.84 2.83 1.8 2.91 1.75 2.98 1.69 3.07 1.64 3.15 1.58 3.22 1.52 3.31 1.46 3.39 1.39 3.48 1.33 3.56 1.26 3.65 1.19 3.74 1.11 3.83 -13.38 3.74 -1.02 -3.5 -1.08 -3.41 -1.15 -3.33 -1.2 -3.23 -1.27 -3.16 -1.32 -3.07 -1.38 -3 -1.43 -2.92 -1.48 -2.84 -1.53 -2.77 -1.57 -2.69 -1.62 -2.63 -1.66 -2.56 -1.7 -2.49 -1.74 -2.42 -1.78 -2.36 -1.81 -2.3 -1.85 -2.24 -1.87 -2.17 -1.9 -2.12 -1.93 -2.06 -1.95 -2.01 -1.98 -1.95 -2 -1.9 -2.02 -1.85 -2.03 -1.81 -2.04 -1.75 -2.05 -1.7 -2.07 -1.66 -2.07 -1.61 -2.08 -1.57 -2.08 -1.53 0 0zm-216.44 -22.3l3.58 -13.47 0 0 2.73 0.55 3.11 0.28 3.5 0 3.87 -0.26 4.21 -0.51 4.54 -0.73 4.84 -0.93 5.14 -1.08 5.41 -1.2 5.68 -1.28 5.93 -1.33 6.19 -1.34 6.43 -1.3 6.66 -1.23 6.89 -1.12 7.11 -0.97 7.33 -0.78 7.54 -0.55 7.75 -0.28 7.95 0.03 8.14 0.38 8.33 0.77 8.51 1.2 8.67 1.66 8.84 2.17 8.99 2.71 9.14 3.28 9.27 3.9 9.4 4.55 9.52 5.24 9.63 5.96 9.74 6.71 -8.13 11.31 -9.19 -6.33 -9.04 -5.59 -8.9 -4.89 -8.74 -4.24 -8.59 -3.61 -8.44 -3.04 -8.3 -2.5 -8.15 -1.99 -7.99 -1.53 -7.84 -1.1 -7.69 -0.7 -7.54 -0.35 -7.38 -0.03 -7.22 0.27 -7.06 0.51 -6.9 0.74 -6.74 0.92 -6.56 1.07 -6.4 1.19 -6.22 1.26 -6.04 1.31 -5.87 1.31 -5.69 1.29 -5.52 1.22 -5.33 1.13 -5.17 0.98 -5 0.81 -4.85 0.58 -4.7 0.31 -4.58 -0.01 -4.46 -0.41 -4.33 -0.88 0 0zm-193.46 51.56l-10.32 -9.32 0 0 4.54 -4.96 4.6 -4.81 4.69 -4.66 4.77 -4.5 4.85 -4.33 4.95 -4.17 5.06 -3.99 5.16 -3.8 5.28 -3.62 5.39 -3.42 5.52 -3.22 5.65 -3 5.78 -2.8 5.92 -2.56 6.06 -2.34 6.22 -2.11 6.37 -1.86 6.52 -1.61 6.68 -1.36 6.84 -1.1 7.01 -0.84 7.18 -0.57 7.36 -0.3 7.54 -0.02 7.72 0.26 7.92 0.54 8.11 0.83 8.31 1.13 8.52 1.42 8.73 1.72 8.96 2.03 9.18 2.34 -3.58 13.47 -8.83 -2.25 -8.59 -1.94 -8.35 -1.65 -8.11 -1.35 -7.88 -1.06 -7.66 -0.78 -7.44 -0.51 -7.24 -0.24 -7.03 0.02 -6.83 0.28 -6.64 0.53 -6.46 0.77 -6.28 1.02 -6.12 1.24 -5.96 1.48 -5.81 1.7 -5.67 1.92 -5.53 2.13 -5.4 2.34 -5.28 2.55 -5.17 2.75 -5.06 2.95 -4.96 3.15 -4.87 3.34 -4.78 3.53 -4.7 3.71 -4.63 3.89 -4.56 4.07 -4.49 4.24 -4.43 4.42 -4.38 4.57 -4.33 4.73 0 0zm-41.43 90.19l-13.76 -1.85 0 0 0.54 -3.79 0.61 -3.74 0.69 -3.7 0.76 -3.65 0.82 -3.61 0.89 -3.57 0.95 -3.51 1.02 -3.48 1.07 -3.42 1.14 -3.39 1.2 -3.33 1.25 -3.28 1.3 -3.24 1.35 -3.19 1.41 -3.14 1.45 -3.09 1.5 -3.04 1.54 -2.99 1.59 -2.94 1.63 -2.89 1.67 -2.84 1.71 -2.8 1.74 -2.74 1.78 -2.69 1.81 -2.63 1.84 -2.58 1.87 -2.54 1.9 -2.48 1.93 -2.42 1.94 -2.37 1.97 -2.32 2 -2.26 10.32 9.32 -1.84 2.09 -1.81 2.14 -1.8 2.19 -1.78 2.24 -1.75 2.28 -1.73 2.34 -1.7 2.39 -1.67 2.44 -1.64 2.48 -1.61 2.53 -1.57 2.57 -1.54 2.63 -1.5 2.67 -1.47 2.72 -1.43 2.76 -1.38 2.81 -1.34 2.85 -1.3 2.9 -1.25 2.94 -1.2 2.99 -1.15 3.03 -1.1 3.07 -1.04 3.12 -1 3.16 -0.94 3.21 -0.88 3.25 -0.82 3.29 -0.76 3.33 -0.7 3.38 -0.63 3.41 -0.57 3.46 -0.5 3.5 0 0zm16.62 120.33l-7.49 -11.75 -2.87 8 -1.27 -3.93 -1.27 -3.78 -1.26 -3.66 -1.25 -3.55 -1.24 -3.44 -1.22 -3.37 -1.19 -3.28 -1.18 -3.23 -1.15 -3.19 -1.11 -3.15 -1.08 -3.13 -1.05 -3.13 -1 -3.13 -0.96 -3.15 -0.9 -3.17 -0.84 -3.2 -0.78 -3.26 -0.71 -3.32 -0.64 -3.39 -0.56 -3.47 -0.48 -3.56 -0.4 -3.65 -0.3 -3.76 -0.22 -3.88 -0.12 -4.01 -0.02 -4.15 0.08 -4.3 0.19 -4.46 0.3 -4.64 0.42 -4.82 0.53 -5.02 0.65 -5.24 13.76 1.85 -0.62 4.98 -0.5 4.76 -0.39 4.54 -0.28 4.33 -0.18 4.15 -0.08 3.98 0.02 3.8 0.11 3.66 0.19 3.52 0.28 3.39 0.35 3.28 0.43 3.19 0.51 3.11 0.57 3.05 0.64 2.98 0.71 2.95 0.77 2.93 0.83 2.92 0.89 2.92 0.94 2.94 0.99 2.96 1.04 3.02 1.08 3.07 1.13 3.13 1.17 3.21 1.2 3.3 1.23 3.39 1.26 3.51 1.28 3.63 1.3 3.76 1.31 3.91 1.32 4.06 -2.87 8zm2.87 -8l1.63 5.11 -4.5 2.89 2.87 -8zm20.19 92.69l-13.69 -2.33 7.52 8.11 -5.6 0.35 -5.4 -0.06 -5.19 -0.46 -4.95 -0.85 -4.71 -1.22 -4.46 -1.58 -4.2 -1.93 -3.92 -2.26 -3.62 -2.56 -3.31 -2.85 -2.98 -3.12 -2.65 -3.37 -2.29 -3.58 -1.94 -3.78 -1.57 -3.95 -1.2 -4.09 -0.82 -4.21 -0.44 -4.31 -0.06 -4.38 0.33 -4.43 0.72 -4.45 1.11 -4.46 1.5 -4.44 1.89 -4.41 2.29 -4.35 2.68 -4.28 3.07 -4.19 3.47 -4.08 3.87 -3.96 4.27 -3.81 4.67 -3.66 5.06 -3.48 7.49 11.75 -4.37 3 -3.96 3.11 -3.58 3.2 -3.2 3.28 -2.83 3.33 -2.48 3.37 -2.13 3.4 -1.78 3.4 -1.46 3.4 -1.14 3.37 -0.83 3.33 -0.53 3.29 -0.24 3.21 0.04 3.14 0.31 3.06 0.57 2.95 0.83 2.84 1.08 2.72 1.33 2.59 1.57 2.46 1.81 2.31 2.06 2.15 2.3 1.99 2.54 1.8 2.8 1.61 3.05 1.4 3.31 1.17 3.57 0.93 3.83 0.65 4.09 0.37 4.36 0.05 4.63 -0.28 7.52 8.11zm-7.52 -8.11l9.03 -0.88 -1.52 8.98 -7.52 -8.11zm70.76 54.76l-13.85 1.02 9.55 5.95 -3.69 1.4 -3.69 1.18 -3.68 0.96 -3.66 0.75 -3.64 0.53 -3.61 0.31 -3.57 0.09 -3.51 -0.11 -3.46 -0.33 -3.39 -0.55 -3.31 -0.76 -3.23 -0.97 -3.14 -1.19 -3.02 -1.4 -2.91 -1.6 -2.78 -1.81 -2.64 -2.02 -2.48 -2.21 -2.32 -2.41 -2.15 -2.6 -1.95 -2.79 -1.76 -2.95 -1.55 -3.12 -1.33 -3.28 -1.11 -3.43 -0.87 -3.57 -0.65 -3.71 -0.4 -3.84 -0.15 -3.96 0.09 -4.08 0.35 -4.19 0.6 -4.3 13.69 2.33 -0.5 3.53 -0.28 3.37 -0.07 3.22 0.12 3.07 0.3 2.92 0.48 2.76 0.64 2.61 0.8 2.46 0.94 2.32 1.08 2.18 1.21 2.04 1.34 1.91 1.46 1.77 1.58 1.64 1.7 1.52 1.81 1.38 1.92 1.24 2.03 1.12 2.13 0.98 2.23 0.85 2.33 0.7 2.43 0.56 2.51 0.41 2.59 0.25 2.67 0.09 2.74 -0.07 2.8 -0.24 2.86 -0.42 2.91 -0.59 2.95 -0.77 2.99 -0.96 3.02 -1.14 9.55 5.95zm-9.55 -5.95l8.85 -3.63 0.69 9.58 -9.55 -5.95zm82.51 30.49l-11.7 7.51 11.48 0.33 -2.61 3.37 -2.78 3.09 -2.92 2.79 -3.06 2.5 -3.18 2.2 -3.28 1.91 -3.37 1.61 -3.44 1.3 -3.49 1 -3.53 0.7 -3.54 0.41 -3.56 0.11 -3.53 -0.19 -3.5 -0.47 -3.46 -0.76 -3.39 -1.04 -3.31 -1.31 -3.22 -1.58 -3.11 -1.84 -3 -2.1 -2.85 -2.36 -2.7 -2.6 -2.53 -2.84 -2.35 -3.07 -2.16 -3.31 -1.95 -3.52 -1.74 -3.74 -1.51 -3.94 -1.27 -4.15 -1.02 -4.33 -0.76 -4.52 -0.48 -4.7 13.85 -1.02 0.4 3.84 0.61 3.64 0.81 3.44 0.99 3.24 1.17 3.04 1.32 2.84 1.47 2.65 1.6 2.45 1.72 2.25 1.83 2.06 1.93 1.86 2.02 1.67 2.1 1.48 2.18 1.28 2.23 1.1 2.28 0.9 2.33 0.71 2.35 0.52 2.39 0.32 2.4 0.13 2.41 -0.08 2.41 -0.27 2.4 -0.48 2.39 -0.69 2.37 -0.9 2.34 -1.12 2.31 -1.34 2.26 -1.57 2.22 -1.81 2.16 -2.07 2.09 -2.31 2 -2.59 11.48 0.33zm-11.48 -0.33l5.98 -8.31 5.5 8.64 -11.48 -0.33zm13.13 3.98l-13.26 4.13 0.16 0.46 -0.04 -0.11 0.04 0.09 -0.02 -0.05 -0.09 -0.22 -0.05 -0.13 0.03 0.07 -0.05 -0.13 -0.02 -0.06 0.05 0.13 0.02 0.05 -0.09 -0.2 -0.09 -0.24 0.04 0.11 0.04 0.1 -0.03 -0.06 -0.06 -0.13 -0.05 -0.13 0.04 0.09 0.07 0.16 -0.1 -0.22 -0.03 -0.07 0.04 0.09 -0.03 -0.07 0.08 0.16 -0.04 -0.06 -0.03 -0.07 0 0.02 -0.03 -0.06 0.09 0.17 0.02 0.03 -0.04 -0.06 0.06 0.1 11.7 -7.51 0.13 0.22 0.04 0.06 0.09 0.15 0.17 0.29 0.03 0.06 0.07 0.14 0.03 0.07 0.04 0.06 0.14 0.29 0.03 0.07 0.1 0.22 0.03 0.07 -0.04 -0.09 0.13 0.29 0.09 0.23 0 0 -0 0 0.03 0.06 0.1 0.23 0.09 0.24 -0.04 -0.11 -0.03 -0.07 0.07 0.17 0.1 0.25 0.02 0.06 -0 -0.02 0.07 0.19 -0.01 -0.02 -0.05 -0.11 0.02 0.05 0.07 0.19 -0.01 -0.02 0.16 0.46zm-0.16 -0.46l0.08 0.21 0.07 0.24 -0.16 -0.46zm-9.28 16.95l-3.82 -12.36 13.26 -4.13 3.82 12.36 0.02 0.05 -13.28 4.09zm13.26 -4.13l0.02 0.05 0.05 0.15 -0.06 -0.2zm4.91 10.66l-11.3 8.11 0 0 -0.29 -0.41 -0.28 -0.41 -0.3 -0.44 -0.28 -0.43 -0.26 -0.39 -0.25 -0.39 -0.27 -0.43 -0.26 -0.43 -0.25 -0.43 -0.23 -0.41 -0.25 -0.44 -0.23 -0.43 -0.22 -0.42 -0.22 -0.45 -0.2 -0.41 -0.22 -0.46 -0.21 -0.46 -0.2 -0.44 -0.19 -0.44 -0.19 -0.46 -0.19 -0.47 -0.19 -0.47 -0.19 -0.5 -0.17 -0.47 -0.17 -0.48 -0.16 -0.47 -0.18 -0.51 -0.18 -0.56 -0.16 -0.51 -0.17 -0.53 -0.17 -0.54 -0.17 -0.56 13.29 -4.04 0.15 0.49 0.15 0.48 0.15 0.46 0.15 0.46 0.13 0.38 0.14 0.41 0.15 0.42 0.14 0.39 0.13 0.38 0.12 0.32 0.13 0.33 0.13 0.33 0.13 0.31 0.13 0.32 0.13 0.31 0.12 0.28 0.13 0.27 0.15 0.3 0.13 0.26 0.15 0.29 0.14 0.27 0.14 0.25 0.16 0.28 0.16 0.27 0.15 0.26 0.17 0.26 0.2 0.31 0.2 0.31 0.19 0.28 0.19 0.28 0.23 0.33 0.23 0.33 0 0zm68.16 -2.75l-8.17 11.28 7.92 0.18 -0.4 0.29 -0.72 0.56 -0.97 0.77 -1.17 0.93 -1.34 1.07 -1.52 1.17 -1.65 1.25 -1.8 1.31 -1.94 1.36 -2.07 1.38 -2.19 1.37 -2.31 1.35 -2.43 1.31 -2.55 1.24 -2.66 1.16 -2.76 1.04 -2.87 0.92 -2.98 0.76 -3.06 0.57 -3.15 0.36 -3.23 0.11 -3.3 -0.15 -3.34 -0.45 -3.37 -0.78 -3.38 -1.13 -3.35 -1.48 -3.31 -1.85 -3.24 -2.23 -3.17 -2.61 -3.08 -3 -3 -3.4 -2.9 -3.8 11.3 -8.11 2.33 3.06 2.31 2.63 2.29 2.22 2.26 1.86 2.22 1.52 2.18 1.22 2.15 0.95 2.12 0.7 2.11 0.48 2.11 0.29 2.11 0.1 2.12 -0.07 2.13 -0.25 2.15 -0.4 2.13 -0.54 2.13 -0.68 2.11 -0.8 2.07 -0.9 2.03 -1 1.98 -1.07 1.93 -1.12 1.85 -1.16 1.78 -1.17 1.68 -1.18 1.6 -1.17 1.5 -1.13 1.38 -1.07 1.27 -1.01 1.17 -0.93 1.06 -0.84 1 -0.76 0.99 -0.7 7.92 0.18zm-7.92 -0.18l4.02 -2.67 3.9 2.85 -7.92 -0.18zm24.11 29.26l-24.36 -17.81 8.17 -11.28 24.36 17.81 0.01 0.01 -8.19 11.27zm8.17 -11.28l0.01 0.01 0.26 0.19 -0.27 -0.19zm64.06 -46.26l-5.85 12.65 9.79 -7.35 0.52 4.41 0.25 4.33 -0.02 4.24 -0.27 4.12 -0.52 4.01 -0.76 3.9 -1.01 3.76 -1.23 3.62 -1.45 3.47 -1.67 3.31 -1.88 3.15 -2.07 2.96 -2.26 2.78 -2.44 2.57 -2.61 2.37 -2.77 2.15 -2.92 1.91 -3.06 1.67 -3.19 1.43 -3.31 1.16 -3.41 0.89 -3.49 0.61 -3.57 0.32 -3.63 0.02 -3.66 -0.28 -3.7 -0.57 -3.72 -0.89 -3.72 -1.2 -3.7 -1.52 -3.68 -1.83 -3.65 -2.15 -3.6 -2.47 8.2 -11.26 2.85 1.95 2.81 1.66 2.79 1.39 2.75 1.13 2.7 0.88 2.65 0.63 2.6 0.41 2.55 0.19 2.48 -0.02 2.43 -0.22 2.37 -0.41 2.3 -0.6 2.23 -0.78 2.16 -0.96 2.08 -1.14 2 -1.31 1.91 -1.48 1.82 -1.65 1.72 -1.81 1.6 -1.97 1.49 -2.13 1.36 -2.28 1.22 -2.44 1.08 -2.58 0.93 -2.72 0.76 -2.85 0.59 -2.99 0.41 -3.12 0.22 -3.25 0.01 -3.36 -0.2 -3.48 -0.42 -3.59 9.79 -7.35zm-9.79 7.35l-1.9 -12.8 11.69 5.45 -9.79 7.35zm58.08 -0.72l7.79 11.55 0 0 -2.51 1.62 -2.48 1.45 -2.46 1.27 -2.44 1.1 -2.41 0.93 -2.39 0.76 -2.37 0.6 -2.34 0.44 -2.3 0.29 -2.27 0.14 -2.22 -0 -2.17 -0.13 -2.13 -0.25 -2.07 -0.36 -2.02 -0.46 -1.95 -0.55 -1.9 -0.61 -1.85 -0.68 -1.8 -0.73 -1.74 -0.78 -1.7 -0.81 -1.66 -0.83 -1.61 -0.85 -1.58 -0.86 -1.55 -0.86 -1.52 -0.85 -1.48 -0.83 -1.45 -0.81 -1.43 -0.78 -1.4 -0.74 -1.39 -0.7 -1.35 -0.65 5.85 -12.65 1.65 0.8 1.61 0.81 1.58 0.83 1.56 0.85 1.53 0.85 1.5 0.84 1.48 0.83 1.47 0.81 1.44 0.78 1.44 0.75 1.41 0.72 1.4 0.67 1.39 0.62 1.37 0.56 1.37 0.51 1.36 0.44 1.35 0.37 1.35 0.31 1.34 0.24 1.35 0.16 1.37 0.08 1.38 0 1.4 -0.09 1.45 -0.18 1.49 -0.28 1.54 -0.39 1.61 -0.52 1.68 -0.64 1.74 -0.78 1.82 -0.94 1.9 -1.1 1.98 -1.28 0 0zm26.38 -55.5l-4.2 13.29 8.99 -7.56 0.33 2.74 0.25 2.69 0.18 2.62 0.1 2.57 0.03 2.51 -0.04 2.46 -0.12 2.41 -0.19 2.35 -0.26 2.31 -0.33 2.26 -0.41 2.2 -0.47 2.15 -0.54 2.09 -0.61 2.06 -0.69 2 -0.74 1.94 -0.82 1.89 -0.88 1.84 -0.95 1.78 -1 1.73 -1.07 1.68 -1.13 1.63 -1.19 1.57 -1.24 1.52 -1.29 1.46 -1.34 1.41 -1.39 1.35 -1.44 1.31 -1.48 1.26 -1.51 1.21 -1.56 1.16 -1.59 1.12 -7.79 -11.55 1.26 -0.88 1.21 -0.91 1.17 -0.93 1.12 -0.95 1.07 -0.98 1.03 -1.02 0.99 -1.04 0.95 -1.07 0.9 -1.1 0.85 -1.14 0.82 -1.18 0.77 -1.21 0.73 -1.25 0.69 -1.3 0.64 -1.33 0.6 -1.38 0.56 -1.44 0.51 -1.48 0.46 -1.53 0.41 -1.6 0.37 -1.66 0.31 -1.71 0.26 -1.78 0.21 -1.84 0.15 -1.91 0.09 -1.97 0.03 -2.04 -0.02 -2.13 -0.09 -2.18 -0.15 -2.26 -0.22 -2.33 -0.29 -2.41 8.99 -7.56zm-8.99 7.56l-1.42 -10.88 10.41 3.32 -8.99 7.56zm53.46 -17.91l11.25 8.17 0 0 -1.17 1.54 -1.23 1.48 -1.3 1.42 -1.36 1.36 -1.43 1.3 -1.47 1.23 -1.54 1.17 -1.59 1.1 -1.63 1.03 -1.69 0.97 -1.73 0.9 -1.79 0.83 -1.82 0.76 -1.85 0.69 -1.92 0.62 -1.94 0.55 -1.96 0.48 -2 0.41 -2.04 0.33 -2.07 0.26 -2.09 0.18 -2.12 0.11 -2.15 0.03 -2.16 -0.05 -2.19 -0.13 -2.2 -0.2 -2.22 -0.28 -2.24 -0.37 -2.24 -0.44 -2.26 -0.52 -2.27 -0.61 -2.27 -0.69 4.2 -13.29 1.85 0.56 1.82 0.49 1.81 0.42 1.8 0.35 1.77 0.29 1.75 0.22 1.72 0.16 1.7 0.09 1.68 0.04 1.64 -0.02 1.61 -0.08 1.59 -0.14 1.56 -0.19 1.51 -0.24 1.49 -0.3 1.46 -0.35 1.42 -0.4 1.37 -0.45 1.35 -0.5 1.3 -0.54 1.25 -0.59 1.23 -0.63 1.17 -0.67 1.14 -0.72 1.09 -0.76 1.04 -0.8 1.01 -0.84 0.96 -0.87 0.91 -0.91 0.87 -0.95 0.82 -0.99 0.77 -1.02 0 0zm11.55 -57.11l0.35 13.94 6.67 -8.17 0.34 1.95 0.33 1.93 0.33 1.91 0.32 1.89 0.31 1.87 0.3 1.86 0.28 1.85 0.26 1.85 0.23 1.83 0.2 1.82 0.17 1.83 0.13 1.83 0.09 1.82 0.05 1.82 0 1.82 -0.04 1.83 -0.1 1.85 -0.17 1.84 -0.23 1.83 -0.29 1.86 -0.37 1.86 -0.44 1.85 -0.52 1.87 -0.6 1.87 -0.68 1.86 -0.77 1.87 -0.85 1.87 -0.94 1.87 -1.03 1.87 -1.12 1.87 -1.21 1.87 -1.3 1.88 -11.25 -8.17 1.04 -1.5 0.95 -1.47 0.86 -1.44 0.78 -1.43 0.7 -1.4 0.63 -1.37 0.56 -1.37 0.5 -1.35 0.43 -1.34 0.37 -1.34 0.32 -1.34 0.27 -1.34 0.21 -1.34 0.17 -1.38 0.13 -1.38 0.08 -1.39 0.04 -1.42 -0 -1.45 -0.04 -1.48 -0.08 -1.51 -0.11 -1.53 -0.15 -1.57 -0.18 -1.61 -0.2 -1.63 -0.23 -1.67 -0.26 -1.71 -0.28 -1.76 -0.3 -1.8 -0.31 -1.83 -0.32 -1.88 -0.33 -1.92 -0.34 -1.97 6.67 -8.17zm-6.67 8.17l-1.38 -7.96 8.04 -0.2 -6.67 8.17zm29.97 -87.15l13.54 3.06 -2.98 -7.37 3.44 2.5 3.13 2.77 2.81 3.01 2.49 3.23 2.16 3.4 1.85 3.56 1.53 3.69 1.22 3.79 0.92 3.87 0.62 3.94 0.33 3.98 0.05 4 -0.23 4 -0.5 4 -0.78 3.96 -1.04 3.91 -1.31 3.85 -1.57 3.76 -1.84 3.67 -2.1 3.54 -2.36 3.4 -2.63 3.23 -2.88 3.05 -3.15 2.84 -3.4 2.6 -3.65 2.35 -3.89 2.06 -4.12 1.76 -4.35 1.43 -4.55 1.08 -4.76 0.71 -4.94 0.33 -0.35 -13.94 3.82 -0.25 3.61 -0.54 3.42 -0.81 3.22 -1.06 3.04 -1.3 2.85 -1.51 2.68 -1.72 2.5 -1.92 2.32 -2.1 2.15 -2.27 1.97 -2.42 1.78 -2.56 1.6 -2.69 1.4 -2.79 1.2 -2.88 1.01 -2.95 0.8 -3 0.6 -3.04 0.39 -3.04 0.18 -3.04 -0.04 -3.01 -0.24 -2.97 -0.46 -2.91 -0.67 -2.82 -0.88 -2.73 -1.08 -2.61 -1.29 -2.48 -1.49 -2.35 -1.69 -2.2 -1.91 -2.05 -2.13 -1.89 -2.36 -1.71 -2.98 -7.37zm2.98 7.37l-4.04 -2.65 1.06 -4.73 2.98 7.37z"/>
    <path id="1" class="fil4" d="M1114.28 698.3c-5.56,11.8 -34.67,38.56 -45.13,42.27 -25.58,9.07 -46.37,-17.41 -37.3,-42.74 3.98,-11.11 32.28,-38.54 43.83,-43.32 27.44,-11.35 50.34,18.88 38.6,43.8zm-71.56 -111.96c17.94,-5.45 34.76,10.75 37.21,24.92 5.09,29.47 -26.76,44.58 -53.81,72.95 -7.48,7.85 -22.23,26.73 -33.94,29.85 -24.62,6.58 -64.89,-22.99 -17.18,-67.97 11.46,-10.81 21.14,-20.12 32.37,-30.87 10.23,-9.79 19.63,-24.11 35.35,-28.89zm-64.3 -38.7c16.72,-5.77 33.14,8.9 36.43,22.63 5.35,22.33 -10.93,34.05 -20.06,42.83 -9.35,8.99 -59.12,59.07 -67.35,61.91 -18.52,6.4 -34.76,-8.67 -38.12,-23.31 -6.3,-27.44 26.37,-45.42 54.58,-73.83 8.96,-9.02 20.71,-25.46 34.52,-30.22zm-77.09 -27.07c25.74,-9.24 50.19,25.8 30.97,50.87 -3.07,4.01 -48.43,47.52 -53.75,49.36 -32.99,11.46 -51.28,-28.14 -33.36,-52.22 4.1,-5.52 49.06,-45.48 56.14,-48.02zm438.92 -25.75c-10.08,-5.39 -16.51,-11.72 -26.5,-18.42l-145.32 -102.5c-29.7,-20.3 -22.25,-18.48 -43.33,-5.48 -38.15,23.54 -75.58,43.33 -112.46,66.91 -57.51,36.77 -94.34,-31.55 -50.42,-63.8l113.37 -65.88c126.23,-66.65 273.11,-9.08 278.13,114.92 0.88,21.65 -2.94,58.33 -13.45,74.25zm-474.44 37.66c-11.29,-41.06 -24.21,-56.85 -15.25,-108.93 6.15,-35.78 24.49,-64.53 41.54,-85.41 46.25,-56.62 145.46,-72.6 186.37,-47 -28.43,18.69 -127.44,65.52 -139.96,88.52 -10.27,18.89 -6.83,43.39 5.05,58.59 31.85,40.73 71.84,8.19 103.54,-10.48 31.74,-18.69 63.24,-39.3 95.7,-56.93 14.37,7.3 29.69,21.73 45.15,30.94l90.26 62.8c21.06,15.79 74.76,48.04 77.47,72.75 2.45,22.32 -13.02,43.22 -33.81,42.53 -23.56,-0.78 -77.52,-58.31 -93.67,-54.8 -1.57,8.2 1.36,9.17 9.15,14.88 17.13,12.54 64.41,39.36 71.46,55.01 13.98,31.05 -9.77,61.51 -36.24,55.3 -8.43,-1.98 -23.26,-15.09 -30.4,-20 -14.5,-9.99 -49.42,-39.31 -58.19,-38.58 -4.46,13.55 4.51,11.55 17.19,21.67 8.38,6.68 16.18,12.38 23.94,18.15 11.37,8.44 36.41,21.96 24.39,55.09 -7.98,22 -34.69,27.31 -53.21,13.43 -11.42,-8.56 -36.5,-33.91 -45.99,-31.58 -4.48,9.2 0.53,10.85 0.55,10.87 0.01,0.02 44.35,25.81 17.91,58.35 -6.86,8.44 -19.3,18.64 -34.84,9.25l-29.06 -20.62c12,-9.47 28.8,-25.77 21.57,-53.59 -2.59,-10 -9.18,-17.97 -14.74,-22.57 -10.36,-8.57 -15.13,-5.83 -25.86,-9.95 15.46,-45.11 -15.25,-80.2 -58.61,-59.33 -8.78,-55.72 -49.4,-54.77 -76.8,-28.37 -2.47,-20.44 -12.91,-39.35 -32.81,-43.19 -27.88,-5.38 -37.81,13.06 -51.82,23.23zm483.9 -26c10.09,-44.97 22.99,-72.34 9.07,-122.62 -10.95,-39.54 -34.3,-63.72 -57.31,-80.39 -101.6,-73.63 -182.44,-13.64 -218.72,-23.38 -97.34,-26.13 -153.41,1.13 -200.41,53.63 -20.53,22.93 -37.95,54.83 -43.15,93.92 -7.41,55.7 5.92,71.98 19.76,115.39 -52.46,33.71 -35.83,94.81 19.96,89.4 -7.16,42.43 27.35,63.01 63.17,48.33 3.38,46.58 50.1,61.05 74.04,27.79 0.39,0.61 0.7,1.5 0.88,1.96l3.82 12.36c1.72,5.71 3.05,8.67 5.89,12.65 27.64,38.86 63.17,3.19 69.72,-1.17l24.36 17.81c34.32,25.19 71.62,-2.4 65.22,-45.57 16.04,7.48 30.89,22.56 55.11,6.08 15.41,-10.48 24.02,-26.81 20.39,-54.63 22.06,7.04 42.2,0.98 52.2,-12.91 13.04,-18.11 9.75,-33.13 6.1,-54.22 47.79,-1.2 62.33,-63.2 29.91,-84.43z"/>
   </g>
   <g>
    <path class="fil3" d="M1010.96 619l-7.18 -7.57 0 0 0.9 -0.87 0.9 -0.91 0.91 -0.94 0.92 -0.96 0.93 -0.98 0.93 -1.01 0.95 -1.03 0.95 -1.04 0.97 -1.06 0.98 -1.06 1 -1.07 1.01 -1.08 1.03 -1.08 1.05 -1.08 1.07 -1.08 1.1 -1.07 1.11 -1.06 1.14 -1.05 1.17 -1.04 1.2 -1.02 1.24 -1 1.26 -0.97 1.29 -0.94 1.33 -0.92 1.37 -0.88 1.41 -0.85 1.45 -0.8 1.48 -0.76 1.53 -0.71 1.57 -0.66 1.61 -0.6 1.66 -0.54 3.02 10.01 -1.26 0.41 -1.22 0.46 -1.2 0.5 -1.17 0.55 -1.16 0.59 -1.13 0.63 -1.11 0.67 -1.1 0.71 -1.08 0.74 -1.06 0.78 -1.06 0.81 -1.04 0.84 -1.02 0.87 -1.02 0.9 -1.01 0.93 -1 0.95 -0.99 0.97 -0.98 0.98 -0.98 1.01 -0.97 1.02 -0.96 1.02 -0.96 1.04 -0.96 1.04 -0.96 1.05 -0.97 1.05 -0.96 1.04 -0.97 1.05 -0.97 1.03 -0.98 1.03 -0.99 1.02 -1 1.01 -1.02 0.98 0 0zm-32.4 30.89l-7.13 -7.62 0 0 1.07 -1.01 1.05 -1 1.05 -0.99 1.04 -0.98 1.04 -0.98 1.02 -0.97 1.02 -0.96 1.02 -0.96 1 -0.95 1 -0.96 1 -0.94 0.99 -0.94 0.99 -0.94 0.99 -0.94 0.98 -0.94 0.98 -0.94 0.99 -0.94 0.98 -0.93 0.99 -0.95 0.99 -0.94 0.98 -0.94 0.99 -0.95 1 -0.96 1 -0.95 1 -0.96 1.01 -0.97 1.01 -0.96 1.02 -0.98 1.03 -0.98 1.03 -0.98 1.04 -1 1.05 -1 7.18 7.57 -1.04 1 -1.04 1 -1.04 0.99 -1.02 0.98 -1.02 0.98 -1.02 0.97 -1 0.96 -1 0.96 -1 0.95 -0.99 0.95 -0.99 0.95 -0.99 0.95 -0.99 0.94 -0.98 0.94 -0.99 0.95 -0.98 0.94 -0.98 0.94 -0.99 0.94 -0.99 0.94 -0.99 0.94 -1 0.95 -1 0.95 -1 0.95 -1.01 0.96 -1.01 0.96 -1.02 0.97 -1.03 0.98 -1.04 0.98 -1.04 0.98 -1.05 1 -1.07 1 -1.07 1.01 0 0zm12.28 59.1l2.68 10.11 0 0 -2.81 0.61 -2.87 0.36 -2.9 0.11 -2.92 -0.11 -2.92 -0.34 -2.9 -0.56 -2.87 -0.78 -2.82 -0.99 -2.75 -1.2 -2.67 -1.41 -2.57 -1.61 -2.44 -1.82 -2.3 -2.02 -2.13 -2.22 -1.94 -2.43 -1.73 -2.63 -1.48 -2.83 -1.2 -3 -0.91 -3.18 -0.58 -3.34 -0.23 -3.47 0.12 -3.59 0.5 -3.69 0.89 -3.79 1.29 -3.87 1.69 -3.94 2.11 -4.01 2.54 -4.08 2.98 -4.15 3.44 -4.22 3.91 -4.28 4.4 -4.35 7.13 7.62 -4.04 3.99 -3.54 3.87 -3.05 3.74 -2.59 3.61 -2.16 3.46 -1.74 3.31 -1.35 3.16 -1 3 -0.67 2.83 -0.36 2.68 -0.09 2.53 0.16 2.38 0.39 2.24 0.61 2.13 0.8 2.01 1 1.89 1.18 1.8 1.34 1.68 1.5 1.56 1.65 1.45 1.77 1.31 1.88 1.19 1.98 1.04 2.05 0.89 2.1 0.74 2.13 0.58 2.15 0.41 2.14 0.26 2.1 0.08 2.05 -0.08 1.98 -0.24 1.89 -0.41 0 0zm31.52 -28.42l7.52 7.24 0 0 -0.68 0.72 -0.73 0.8 -0.78 0.86 -0.82 0.92 -0.87 0.97 -0.91 1.01 -0.93 1.05 -0.98 1.09 -1.01 1.12 -1.03 1.14 -1.06 1.17 -1.09 1.18 -1.11 1.19 -1.13 1.2 -1.16 1.19 -1.17 1.18 -1.19 1.19 -1.22 1.17 -1.22 1.14 -1.24 1.13 -1.26 1.09 -1.26 1.06 -1.28 1.02 -1.29 0.99 -1.3 0.94 -1.32 0.89 -1.33 0.83 -1.35 0.77 -1.37 0.7 -1.39 0.62 -1.43 0.54 -1.45 0.44 -2.68 -10.11 0.76 -0.23 0.82 -0.31 0.87 -0.39 0.93 -0.47 0.96 -0.55 1.01 -0.63 1.03 -0.69 1.05 -0.76 1.07 -0.81 1.09 -0.87 1.1 -0.93 1.1 -0.96 1.11 -1 1.11 -1.04 1.1 -1.06 1.1 -1.09 1.1 -1.11 1.09 -1.12 1.07 -1.13 1.06 -1.14 1.04 -1.13 1.02 -1.13 1.01 -1.11 0.98 -1.1 0.96 -1.08 0.94 -1.05 0.91 -1.02 0.87 -0.98 0.85 -0.95 0.82 -0.91 0.79 -0.86 0.77 -0.81 0 0zm52.44 -68.43l10.26 -1.8 0 0 0.42 3.1 0.19 3.04 -0.04 2.97 -0.27 2.91 -0.48 2.84 -0.7 2.75 -0.88 2.68 -1.06 2.6 -1.23 2.53 -1.38 2.45 -1.52 2.38 -1.65 2.33 -1.76 2.28 -1.87 2.22 -1.96 2.2 -2.06 2.17 -2.13 2.15 -2.21 2.13 -2.28 2.13 -2.33 2.12 -2.39 2.13 -2.43 2.14 -2.47 2.16 -2.5 2.18 -2.52 2.21 -2.53 2.24 -2.55 2.28 -2.55 2.32 -2.54 2.37 -2.53 2.43 -2.5 2.48 -2.48 2.55 -7.52 -7.24 2.61 -2.69 2.64 -2.61 2.63 -2.53 2.64 -2.47 2.63 -2.39 2.6 -2.34 2.58 -2.28 2.54 -2.23 2.5 -2.18 2.44 -2.14 2.39 -2.11 2.32 -2.07 2.25 -2.04 2.17 -2.02 2.07 -2 1.98 -1.98 1.86 -1.96 1.75 -1.95 1.63 -1.95 1.5 -1.94 1.36 -1.93 1.23 -1.94 1.09 -1.93 0.94 -1.93 0.8 -1.95 0.65 -1.97 0.5 -2 0.35 -2.04 0.19 -2.09 0.04 -2.17 -0.14 -2.25 -0.32 -2.34 0 0zm-30.57 -20.81l-3.02 -10.01 0 0 2.02 -0.54 2.02 -0.4 2.01 -0.25 1.99 -0.11 1.96 0.02 1.95 0.14 1.92 0.27 1.87 0.38 1.83 0.48 1.8 0.59 1.75 0.69 1.7 0.78 1.64 0.86 1.6 0.94 1.54 1.01 1.48 1.07 1.43 1.14 1.37 1.2 1.31 1.26 1.24 1.3 1.19 1.34 1.13 1.4 1.05 1.42 0.98 1.46 0.92 1.5 0.84 1.52 0.76 1.55 0.69 1.57 0.6 1.59 0.52 1.6 0.43 1.62 0.33 1.63 -10.26 1.8 -0.21 -1.04 -0.28 -1.06 -0.35 -1.09 -0.41 -1.1 -0.48 -1.1 -0.55 -1.11 -0.61 -1.11 -0.67 -1.09 -0.74 -1.09 -0.79 -1.07 -0.83 -1.04 -0.89 -1.01 -0.94 -0.98 -0.98 -0.93 -1.02 -0.89 -1.06 -0.85 -1.09 -0.79 -1.12 -0.74 -1.15 -0.67 -1.18 -0.61 -1.19 -0.55 -1.21 -0.48 -1.23 -0.4 -1.24 -0.33 -1.26 -0.26 -1.26 -0.18 -1.27 -0.09 -1.29 -0.01 -1.3 0.07 -1.31 0.16 -1.32 0.26 -1.34 0.36 0 0z"/>
    <path id="1" class="fil2" d="M1042.72 586.33c-15.71,4.78 -25.12,19.09 -35.35,28.89 -11.23,10.75 -20.91,20.06 -32.37,30.87 -47.71,44.98 -7.44,74.55 17.18,67.97 11.7,-3.13 26.45,-22 33.94,-29.85 27.05,-28.37 58.91,-43.48 53.81,-72.95 -2.45,-14.17 -19.27,-30.37 -37.21,-24.92z"/>
   </g>
   <g>
    <path class="fil3" d="M947.59 581.54l-7.37 -7.39 0 0 0.79 -0.81 0.83 -0.87 0.85 -0.91 0.86 -0.94 0.9 -1 0.91 -1.02 0.94 -1.05 0.96 -1.07 0.98 -1.09 1 -1.11 1.02 -1.12 1.04 -1.14 1.06 -1.14 1.08 -1.15 1.09 -1.14 1.12 -1.15 1.14 -1.14 1.16 -1.13 1.19 -1.11 1.2 -1.09 1.23 -1.07 1.25 -1.05 1.27 -1.02 1.29 -0.98 1.32 -0.95 1.35 -0.91 1.37 -0.86 1.41 -0.81 1.43 -0.76 1.47 -0.7 1.49 -0.63 1.52 -0.57 3.38 9.89 -1.05 0.39 -1.06 0.45 -1.06 0.51 -1.08 0.57 -1.07 0.62 -1.07 0.68 -1.09 0.72 -1.07 0.78 -1.09 0.82 -1.07 0.86 -1.07 0.9 -1.06 0.93 -1.07 0.98 -1.06 0.99 -1.04 1.02 -1.05 1.04 -1.03 1.06 -1.03 1.07 -1.02 1.08 -1 1.09 -1 1.09 -0.99 1.1 -0.98 1.08 -0.96 1.09 -0.96 1.07 -0.94 1.06 -0.94 1.05 -0.93 1.02 -0.93 1.01 -0.92 0.98 -0.9 0.95 -0.9 0.92 0 0zm-53.19 68.96l-10.15 2.35 0 -0 -0.55 -2.96 -0.31 -2.93 -0.05 -2.89 0.19 -2.84 0.42 -2.78 0.64 -2.73 0.84 -2.65 1.03 -2.59 1.2 -2.54 1.36 -2.47 1.51 -2.42 1.65 -2.37 1.77 -2.33 1.88 -2.3 1.99 -2.27 2.08 -2.25 2.18 -2.24 2.26 -2.22 2.33 -2.22 2.4 -2.23 2.45 -2.23 2.5 -2.25 2.55 -2.26 2.58 -2.28 2.61 -2.31 2.64 -2.33 2.64 -2.36 2.65 -2.41 2.65 -2.44 2.64 -2.48 2.62 -2.53 2.61 -2.58 7.37 7.39 -2.71 2.69 -2.72 2.63 -2.73 2.56 -2.72 2.5 -2.71 2.45 -2.69 2.41 -2.66 2.35 -2.61 2.31 -2.57 2.28 -2.52 2.23 -2.46 2.2 -2.38 2.17 -2.3 2.14 -2.22 2.12 -2.12 2.09 -2.01 2.07 -1.9 2.06 -1.78 2.03 -1.65 2.02 -1.52 2 -1.37 1.97 -1.22 1.97 -1.08 1.95 -0.92 1.94 -0.76 1.93 -0.61 1.92 -0.45 1.92 -0.29 1.93 -0.13 1.96 0.04 2 0.21 2.06 0.4 2.13 0 -0zm31.35 19.55l3.39 9.89 0 0 -2.04 0.64 -2.04 0.49 -2.02 0.36 -2.01 0.22 -1.99 0.09 -1.96 -0.04 -1.93 -0.16 -1.9 -0.28 -1.87 -0.39 -1.81 -0.5 -1.77 -0.59 -1.73 -0.69 -1.67 -0.78 -1.62 -0.87 -1.56 -0.93 -1.51 -1.02 -1.45 -1.07 -1.39 -1.14 -1.33 -1.2 -1.28 -1.26 -1.21 -1.31 -1.15 -1.35 -1.08 -1.4 -1.02 -1.43 -0.95 -1.47 -0.88 -1.5 -0.81 -1.54 -0.73 -1.55 -0.66 -1.57 -0.59 -1.61 -0.5 -1.61 -0.42 -1.63 10.15 -2.35 0.29 1.12 0.35 1.13 0.41 1.12 0.48 1.13 0.54 1.14 0.59 1.12 0.65 1.1 0.7 1.09 0.76 1.06 0.81 1.04 0.85 1 0.9 0.97 0.94 0.93 0.98 0.88 1.02 0.83 1.06 0.78 1.08 0.72 1.11 0.67 1.14 0.61 1.16 0.54 1.18 0.47 1.21 0.4 1.23 0.34 1.23 0.26 1.27 0.18 1.29 0.11 1.3 0.02 1.32 -0.06 1.34 -0.15 1.37 -0.24 1.39 -0.34 1.42 -0.44 0 0zm65.44 -60.74l7.2 7.55 0 0 -0.97 0.94 -1.2 1.17 -1.42 1.39 -1.61 1.58 -1.79 1.76 -1.95 1.92 -2.1 2.07 -2.23 2.2 -2.35 2.3 -2.45 2.41 -2.54 2.48 -2.61 2.55 -2.67 2.59 -2.71 2.62 -2.74 2.65 -2.75 2.64 -2.75 2.63 -2.74 2.59 -2.7 2.54 -2.65 2.48 -2.6 2.4 -2.52 2.3 -2.43 2.19 -2.33 2.07 -2.22 1.92 -2.09 1.77 -1.95 1.6 -1.81 1.43 -1.67 1.24 -1.55 1.06 -1.49 0.88 -1.63 0.72 -3.39 -9.89 0.15 -0.08 0.75 -0.44 1.12 -0.76 1.39 -1.03 1.62 -1.28 1.81 -1.48 1.98 -1.67 2.13 -1.85 2.26 -2 2.38 -2.14 2.48 -2.26 2.56 -2.36 2.62 -2.44 2.68 -2.52 2.71 -2.57 2.73 -2.6 2.74 -2.62 2.72 -2.62 2.7 -2.61 2.66 -2.58 2.6 -2.54 2.53 -2.47 2.44 -2.4 2.34 -2.3 2.23 -2.19 2.09 -2.06 1.95 -1.93 1.8 -1.76 1.62 -1.59 1.43 -1.4 1.22 -1.2 1.01 -0.98 0 0zm18.6 -37.83l10.13 -2.45 0 0 0.5 2.33 0.36 2.28 0.24 2.22 0.1 2.19 -0.02 2.12 -0.13 2.07 -0.25 2.02 -0.35 1.95 -0.45 1.9 -0.54 1.84 -0.63 1.77 -0.7 1.71 -0.78 1.65 -0.84 1.59 -0.89 1.52 -0.94 1.48 -0.98 1.41 -1.01 1.35 -1.04 1.31 -1.06 1.26 -1.07 1.2 -1.08 1.16 -1.09 1.13 -1.08 1.07 -1.07 1.04 -1.06 1 -1.03 0.96 -1.01 0.93 -0.98 0.89 -0.92 0.85 -0.88 0.83 -0.84 0.8 -7.2 -7.55 0.92 -0.87 0.94 -0.88 0.97 -0.89 0.97 -0.89 0.97 -0.9 0.98 -0.92 0.98 -0.93 0.97 -0.94 0.97 -0.96 0.94 -0.98 0.93 -1 0.91 -1.02 0.87 -1.03 0.84 -1.06 0.81 -1.09 0.77 -1.11 0.72 -1.12 0.67 -1.15 0.63 -1.18 0.56 -1.2 0.51 -1.24 0.45 -1.26 0.39 -1.3 0.32 -1.33 0.25 -1.38 0.17 -1.43 0.09 -1.47 0.02 -1.53 -0.08 -1.59 -0.17 -1.66 -0.27 -1.73 -0.39 -1.8 0 0zm-29.68 -18.91l-3.38 -9.89 0 0 1.9 -0.59 1.9 -0.44 1.91 -0.31 1.9 -0.18 1.88 -0.05 1.85 0.07 1.83 0.19 1.8 0.3 1.76 0.4 1.74 0.5 1.69 0.6 1.64 0.68 1.61 0.76 1.56 0.84 1.51 0.91 1.46 0.98 1.41 1.04 1.35 1.09 1.31 1.16 1.25 1.2 1.19 1.25 1.13 1.3 1.07 1.33 1.01 1.37 0.94 1.4 0.88 1.44 0.8 1.46 0.74 1.48 0.67 1.52 0.58 1.53 0.5 1.55 0.42 1.56 -10.13 2.45 -0.27 -1.02 -0.34 -1.04 -0.4 -1.05 -0.46 -1.04 -0.53 -1.06 -0.58 -1.06 -0.64 -1.04 -0.7 -1.03 -0.75 -1.02 -0.8 -0.99 -0.84 -0.96 -0.89 -0.93 -0.93 -0.9 -0.96 -0.85 -1.01 -0.81 -1.03 -0.77 -1.05 -0.7 -1.08 -0.65 -1.11 -0.6 -1.12 -0.54 -1.14 -0.47 -1.15 -0.41 -1.15 -0.33 -1.18 -0.27 -1.17 -0.19 -1.18 -0.12 -1.19 -0.05 -1.19 0.03 -1.19 0.11 -1.2 0.2 -1.22 0.29 -1.23 0.37 0 0z"/>
    <path id="1" class="fil2" d="M978.42 547.63c-13.81,4.76 -25.56,21.19 -34.52,30.22 -28.21,28.42 -60.88,46.4 -54.58,73.83 3.37,14.65 19.6,29.72 38.12,23.31 8.22,-2.84 58,-52.92 67.35,-61.91 9.13,-8.78 25.42,-20.5 20.06,-42.83 -3.29,-13.73 -19.7,-28.39 -36.43,-22.63z"/>
   </g>
   <path class="fil2" d="M901.33 520.55c-7.08,2.54 -52.04,42.5 -56.14,48.02 -17.92,24.08 0.37,63.67 33.36,52.22 5.31,-1.85 50.67,-45.35 53.75,-49.36 19.22,-25.07 -5.22,-60.11 -30.97,-50.87z"/>
   <g>
    <path class="fil3" d="M1077.67 659.33l-3.97 -9.67 0 0 2.93 -1.09 2.93 -0.82 2.92 -0.56 2.87 -0.31 2.84 -0.07 2.78 0.17 2.71 0.4 2.64 0.62 2.55 0.83 2.46 1.02 2.35 1.21 2.24 1.37 2.13 1.54 2 1.69 1.87 1.82 1.74 1.96 1.6 2.07 1.46 2.18 1.32 2.28 1.16 2.37 1 2.44 0.84 2.53 0.67 2.59 0.49 2.65 0.3 2.69 0.12 2.73 -0.07 2.76 -0.28 2.77 -0.49 2.77 -0.71 2.78 -0.93 2.75 -1.16 2.71 -9.41 -4.47 0.84 -1.99 0.68 -1.99 0.51 -2 0.35 -2.01 0.2 -2.01 0.06 -1.99 -0.09 -1.99 -0.22 -1.96 -0.36 -1.93 -0.49 -1.89 -0.61 -1.85 -0.74 -1.8 -0.85 -1.74 -0.96 -1.67 -1.07 -1.59 -1.17 -1.5 -1.25 -1.4 -1.35 -1.31 -1.42 -1.2 -1.5 -1.08 -1.57 -0.96 -1.63 -0.84 -1.69 -0.7 -1.74 -0.56 -1.8 -0.42 -1.85 -0.28 -1.9 -0.12 -1.96 0.04 -2.02 0.22 -2.07 0.4 -2.11 0.59 -2.19 0.8 0 0zm-40.92 40.26l-9.8 -3.54 0 0 0.59 -1.47 0.72 -1.47 0.83 -1.48 0.94 -1.51 1.03 -1.54 1.13 -1.58 1.22 -1.61 1.3 -1.65 1.38 -1.67 1.44 -1.69 1.51 -1.72 1.57 -1.72 1.61 -1.73 1.66 -1.73 1.69 -1.72 1.72 -1.72 1.75 -1.69 1.76 -1.67 1.77 -1.63 1.77 -1.6 1.77 -1.55 1.76 -1.5 1.74 -1.44 1.71 -1.37 1.68 -1.3 1.65 -1.22 1.6 -1.14 1.57 -1.05 1.52 -0.96 1.48 -0.86 1.44 -0.76 1.43 -0.65 3.97 9.67 -0.83 0.37 -1 0.53 -1.13 0.65 -1.23 0.78 -1.33 0.89 -1.41 1 -1.47 1.09 -1.53 1.19 -1.58 1.27 -1.62 1.33 -1.65 1.4 -1.66 1.45 -1.67 1.5 -1.68 1.55 -1.67 1.58 -1.65 1.6 -1.63 1.62 -1.61 1.63 -1.56 1.63 -1.52 1.63 -1.46 1.62 -1.4 1.58 -1.33 1.57 -1.25 1.52 -1.16 1.47 -1.07 1.41 -0.96 1.34 -0.85 1.26 -0.72 1.15 -0.58 1.04 -0.44 0.89 -0.29 0.7 0 0zm30.67 36.04l3.46 9.86 0 0 -2.75 0.87 -2.74 0.63 -2.71 0.41 -2.68 0.2 -2.65 -0.02 -2.59 -0.23 -2.53 -0.43 -2.46 -0.63 -2.38 -0.81 -2.29 -0.98 -2.2 -1.15 -2.1 -1.31 -1.99 -1.45 -1.88 -1.58 -1.77 -1.72 -1.65 -1.83 -1.53 -1.94 -1.4 -2.05 -1.26 -2.15 -1.13 -2.23 -0.99 -2.32 -0.84 -2.39 -0.7 -2.46 -0.54 -2.52 -0.39 -2.57 -0.22 -2.62 -0.05 -2.65 0.13 -2.68 0.3 -2.7 0.49 -2.71 0.68 -2.71 0.87 -2.7 9.8 3.54 -0.66 2.05 -0.5 2.04 -0.37 2.03 -0.22 2.02 -0.09 1.99 0.04 1.97 0.16 1.93 0.28 1.91 0.4 1.86 0.52 1.81 0.62 1.76 0.72 1.69 0.83 1.64 0.92 1.56 1.01 1.48 1.09 1.4 1.17 1.31 1.25 1.21 1.31 1.11 1.39 1.01 1.44 0.9 1.5 0.78 1.56 0.67 1.61 0.55 1.66 0.42 1.71 0.3 1.76 0.15 1.8 0.02 1.86 -0.13 1.92 -0.29 1.96 -0.45 2.02 -0.63 0 0zm42.16 -39.57l9.41 4.47 0 0 -0.74 1.44 -0.85 1.46 -0.95 1.48 -1.06 1.51 -1.15 1.55 -1.24 1.58 -1.33 1.61 -1.4 1.64 -1.47 1.66 -1.54 1.69 -1.59 1.7 -1.65 1.7 -1.69 1.7 -1.72 1.7 -1.75 1.69 -1.78 1.67 -1.79 1.65 -1.8 1.61 -1.8 1.58 -1.8 1.54 -1.78 1.48 -1.75 1.42 -1.73 1.37 -1.7 1.3 -1.66 1.22 -1.62 1.14 -1.57 1.06 -1.52 0.96 -1.48 0.87 -1.43 0.77 -1.4 0.67 -1.4 0.56 -3.46 -9.86 0.67 -0.27 0.87 -0.42 1.03 -0.56 1.16 -0.69 1.27 -0.81 1.36 -0.91 1.44 -1.02 1.51 -1.11 1.56 -1.19 1.61 -1.27 1.65 -1.34 1.68 -1.39 1.69 -1.44 1.7 -1.5 1.71 -1.53 1.7 -1.56 1.69 -1.59 1.67 -1.61 1.64 -1.61 1.59 -1.61 1.55 -1.61 1.49 -1.59 1.43 -1.57 1.36 -1.54 1.28 -1.49 1.19 -1.45 1.09 -1.38 0.98 -1.32 0.86 -1.23 0.73 -1.13 0.59 -1 0.44 -0.86 0 0z"/>
    <path id="1" class="fil2" d="M1114.28 698.3c11.74,-24.91 -11.16,-55.14 -38.6,-43.8 -11.55,4.78 -39.86,32.22 -43.83,43.32 -9.06,25.33 11.72,51.81 37.3,42.74 10.46,-3.71 39.58,-30.46 45.13,-42.27z"/>
   </g>
   <polygon class="fil5" points="1028.24,1110.94 1028.24,1825.67 968.13,1825.67 968.13,1110.94 "/>
   <polygon class="fil5" points="1128,1110.49 1128,1825.22 1067.89,1825.22 1067.89,1110.49 "/>
   <polygon class="fil5" points="1227.77,1110.49 1227.77,1825.22 1167.66,1825.22 1167.66,1110.49 "/>
   <rect class="fil2" x="936.73" y="1038.23" width="320.87" height="50.79"/>
   <polygon class="fil2" points="915.56,1016.87 1278.76,1016.87 1099.34,881.01 "/>
   <rect class="fil2" x="936.73" y="1847.3" width="320.87" height="50.79"/>
   <rect class="fil2" x="913.28" y="1991.88" width="367.76" height="22.48"/>
   <rect class="fil2" x="936.73" y="1919.41" width="320.87" height="50.79"/>
   <g>
    <path class="fil5" d="M2489.71 1132.63l0 30.23c79.24,4.87 88.5,9.02 88.5,103.13l0 412.53c0,86.8 -9.27,95.33 -94.11,102.4l0 30.23 298.43 0 0 -30.23c-97.04,-7.07 -106.3,-12.92 -106.3,-101.67l0 -158.72 79.72 20c11.46,0.73 33.65,0.73 49.98,-1.46 104.35,-11.94 208.21,-78.02 208.21,-215.04 0,-68.76 -27.06,-117.76 -69.73,-149.21 -42.67,-30.48 -104.11,-42.18 -180.42,-42.18l-274.29 0zm186.52 94.6c0,-29.5 4.15,-40.96 11.21,-48.03 7.31,-7.31 29.26,-12.92 58.52,-12.92 84.36,0 157.02,47.3 157.02,161.4 0,133.37 -84.11,169.45 -150.43,169.45 -33.65,0 -62.9,-8.04 -76.31,-12.92l0 -256.98z"/>
    <path class="fil5" d="M3584.67 1636.83c-17.8,49.98 -37.79,84.36 -57.78,104.35 -24.38,27.31 -62.17,33.65 -118.74,33.65 -41.94,0 -78.51,-1.95 -99.23,-13.41 -19.99,-10.73 -24.87,-30.96 -24.87,-88.02l0 -407.17c0,-91.43 10,-97.28 94.11,-102.89l0 -30.72 -289.16 0 0 30.72c88.5,5.61 95.57,12.19 95.57,102.89l0 410.58c0,91.67 -9.27,98.74 -100.7,105.08l0 29.5 492.99 0c10.73,-31.7 32.92,-132.39 39.99,-168.23l-32.19 -6.34z"/>
    <path class="fil5" d="M3960.39 1811.16l0 -30.23c-86.31,-6.34 -95.57,-12.92 -95.57,-102.89l0 -412.04c0,-90.7 9.27,-97.04 95.57,-102.65l0 -30.72 -291.35 0 0 30.72c87.04,5.61 96.31,11.95 96.31,102.65l0 412.04c0,89.97 -9.27,96.55 -96.31,102.89l0 30.23 291.35 0z"/>
    <path class="fil5" d="M4785.21 1132.63l-254.79 0 0 30.72c76.31,3.41 101.19,17.07 106.06,66.32 2.93,29.99 7.31,77.04 7.31,174.33l0 243.32 -2.93 0 -453.98 -514.69 -164.33 0 0 30.72c49.98,3.41 72.9,11.95 95.09,37.79 19.26,24.87 22.92,30.72 22.92,107.04l0 224.31c0,96.31 -4.39,145.56 -8.78,178.47 -4.88,52.17 -31.94,65.58 -93.38,69.97l0 30.23 255.27 0 0 -30.23c-73.39,-5.61 -97.52,-18.53 -102.4,-72.9 -2.93,-29.99 -7.31,-79.24 -7.31,-175.54l0.73 -255.03 1.46 0 468.36 544.19 34.13 0 0 -417.65c0,-97.28 2.93,-144.34 6.58,-177.98 4.88,-47.79 30.72,-59.98 89.97,-62.66l0 -30.72z"/>
    <path class="fil5" d="M5457.41 1296.96c-4.88,-62.9 -10.73,-143.12 -10.73,-190.66l-22.92 0c-16.33,19.99 -26.33,26.33 -55.59,26.33l-432.52 0c-31.69,0 -45.11,0 -60.95,-26.33l-22.92 0c-2.19,57.3 -7.07,126.3 -12.19,194.07l32.19 0c13.65,-49.25 22.92,-79.72 36.57,-97.77 14.39,-21.94 36.57,-31.94 129.71,-31.94l62.17 0 0 508.84c0,83.63 -9.26,95.09 -107.28,101.43l0 30.23 315.98 0 0 -30.23c-101.43,-6.34 -110.69,-18.53 -110.69,-101.43l0 -508.84 72.66 0c81.43,0 100.2,7.8 118,31.94 13.65,18.04 24.87,45.83 36.33,97.77l32.19 -3.41z"/>
    <path class="fil5" d="M6284.18 1132.63l-288.67 0 0 30.72c85.09,7.07 93.62,12.68 93.62,100.7l0 164.09 -367.18 0 0 -164.09c0,-88.75 8.54,-93.63 91.67,-100.7l0 -30.72 -287.45 0 0 30.72c88.5,7.07 96.31,11.95 96.31,100.7l0 415.21c0,88.75 -7.8,94.6 -93.38,101.67l0 30.23 290.14 0 0 -30.23c-88.75,-7.07 -97.28,-13.65 -97.28,-101.67l0 -204.31 367.18 0 0 204.31c0,88.75 -8.53,94.6 -100.94,101.67l0 30.23 295.99 0 0 -30.23c-87.77,-7.07 -97.04,-12.92 -97.04,-101.67l0 -415.21c0,-88.75 8.53,-93.63 97.04,-100.7l0 -30.72z"/>
    <path class="fil5" d="M6767.66 1290.13c-9.26,-67.54 -14.14,-110.2 -18.53,-147.26 -39.74,-14.14 -87.77,-26.33 -138.73,-26.33 -139.95,0 -224.06,86.31 -224.06,190.66 0,114.83 102.15,167.01 176.76,204.07 81.92,42.67 139.22,78.51 139.22,154.09 0,74.85 -45.84,122.64 -124.1,122.64 -109.96,0 -161.89,-108.98 -179.69,-175.55l-32.19 9.27c6.58,50.71 22.19,145.8 29.26,166.28 10.73,5.12 25.84,13.65 52.91,22.19 27.06,9.27 62.91,17.31 107.52,17.31 146.29,0 241.37,-89.24 241.37,-201.39 0,-114.83 -93.63,-164.08 -184.81,-208.46 -87.53,-41.94 -137.02,-77.78 -137.02,-151.17 0,-57.05 38.04,-113.37 118.49,-113.37 90.46,0 123.13,75.58 141.66,142.63l31.94 -5.61z"/>
    <path class="fil5" d="M7472.52 1296.96c-4.88,-62.9 -10.73,-143.12 -10.73,-190.66l-22.92 0c-16.33,19.99 -26.33,26.33 -55.59,26.33l-432.52 0c-31.69,0 -45.11,0 -60.95,-26.33l-22.92 0c-2.19,57.3 -7.07,126.3 -12.19,194.07l32.19 0c13.65,-49.25 22.92,-79.72 36.57,-97.77 14.39,-21.94 36.57,-31.94 129.71,-31.94l62.17 0 0 508.84c0,83.63 -9.26,95.09 -107.28,101.43l0 30.23 315.98 0 0 -30.23c-101.43,-6.34 -110.69,-18.53 -110.69,-101.43l0 -508.84 72.66 0c81.43,0 100.2,7.8 118,31.94 13.65,18.04 24.87,45.83 36.33,97.77l32.19 -3.41z"/>
    <path class="fil5" d="M9091.69 1132.63l-254.79 0 0 30.72c76.31,3.41 101.19,17.07 106.06,66.32 2.93,29.99 7.31,77.04 7.31,174.33l0 243.32 -2.93 0 -453.98 -514.69 -164.33 0 0 30.72c49.98,3.41 72.9,11.95 95.09,37.79 19.26,24.87 22.92,30.72 22.92,107.04l0 224.31c0,96.31 -4.39,145.56 -8.78,178.47 -4.88,52.17 -31.94,65.58 -93.38,69.97l0 30.23 255.27 0 0 -30.23c-73.39,-5.61 -97.52,-18.53 -102.4,-72.9 -2.93,-29.99 -7.31,-79.24 -7.31,-175.54l0.73 -255.03 1.46 0 468.36 544.19 34.13 0 0 -417.65c0,-97.28 2.93,-144.34 6.58,-177.98 4.88,-47.79 30.72,-59.98 89.97,-62.66l0 -30.72z"/>
    <path class="fil5" d="M9676.84 1637.81c-15.6,42.43 -35.59,79 -54.37,101.18 -24.13,27.31 -56.07,34.38 -133.85,34.38 -48.52,0 -88.26,0 -108.98,-12.19 -19.99,-12.92 -25.6,-36.57 -25.6,-86.07l0 -193.1 97.53 0c93.38,0 101.18,5.85 116.06,82.65l32.18 0 0 -205.29 -32.18 0c-13.41,70.7 -20.48,79.24 -116.06,79.24l-97.53 0 0 -233.82c0,-31.45 1.95,-34.13 37.06,-34.13l79 0c73.39,0 102.65,7.07 118.25,29.75 13.41,22.92 24.87,47.06 34.87,90.7l32.92 -4.39c-4.39,-58.52 -8.54,-127.27 -10,-154.09l-483.72 0 0 30.72c82.89,7.07 92.16,10 92.16,105.57l0 409.12c0,85.82 -9.27,95.82 -105.57,102.89l0 30.48 523.46 0c9.51,-33.16 30.23,-129.71 37.3,-169.2l-32.92 -4.39z"/>
    <ellipse class="fil0" cx="7903.34" cy="1472.01" rx="347.11" ry="353.65"/>
    <path class="fil2" d="M7932.58 1463.03l0 124.49c0,15.01 -13.15,27.29 -29.23,27.29l-0 0c-16.08,0 -29.23,-12.28 -29.23,-27.29l0 -124.49c-25.48,-10.83 -43.27,-35.39 -43.27,-63.94 0,-38.58 32.46,-69.86 72.5,-69.86 40.04,0 72.5,31.28 72.5,69.86 0,28.56 -17.78,53.11 -43.26,63.94z"/>
    <path class="fil6" d="M7896.7 1463.48c-23.71,-10.8 -40.26,-35.27 -40.26,-63.75 0,-33.95 23.53,-62.23 54.68,-68.4 -4.14,-0.82 -8.42,-1.25 -12.8,-1.25 -37.26,0 -67.47,31.18 -67.47,69.65 0,28.48 16.55,52.95 40.27,63.75l0 124.12c0,14.96 12.24,27.2 27.21,27.2 4.62,0 8.97,-1.17 12.79,-3.21 -8.56,-4.6 -14.42,-13.64 -14.42,-23.99l0 -124.12z"/>
    <g>
     <path class="fil5" d="M7928.79 724.43l-755.33 459.73 -28.88 -47.46 755.33 -459.73 31.85 2.08 -2.97 45.37zm-28.88 -47.46l16.66 -10.14 15.19 12.22 -31.85 -2.08zm562.91 500.47l-565.88 -455.09 34.82 -43.29 565.88 455.09 -34.82 43.29z"/>
    </g>
   </g>
  </g>
 </g>
</svg>
